<mxfile host="app.diagrams.net" modified="2024-04-10T13:27:24.107Z" agent="Mozilla/5.0 (Windows NT 10.0; Win64; x64) AppleWebKit/537.36 (KHTML, like Gecko) Chrome/123.0.0.0 Safari/537.36 Edg/123.0.0.0" etag="wU3Zwe8jAW27zVRpTToE" version="24.2.3" type="github">
  <diagram name="第 1 页" id="1t-kaznUMbrfc13UYxhg">
    <mxGraphModel dx="3186" dy="998" grid="1" gridSize="10" guides="1" tooltips="1" connect="1" arrows="1" fold="1" page="1" pageScale="1" pageWidth="827" pageHeight="1169" math="0" shadow="0">
      <root>
        <mxCell id="0" />
        <mxCell id="1" parent="0" />
        <mxCell id="A0HgNM1Q325AY8ZzX9nf-16" value="" style="shape=image;verticalLabelPosition=bottom;labelBackgroundColor=default;verticalAlign=top;aspect=fixed;imageAspect=0;image=data:image/png,iVBORw0KGgoAAAANSUhEUgAAAj4AAAHXCAYAAAC8kVB7AAAAAXNSR0IArs4c6QAAAARnQU1BAACxjwv8YQUAAAAJcEhZcwAADsMAAA7DAcdvqGQAANziSURBVHhe7N0FeFTH3sfxb5wQJUaA4O7u7u7eQimFUqG00JaWFisOxd3dPbhrPFggITgkSIi7y+67Z7O9bd+WQikS+X/u0+fmzKyF7Dnnd2bmzOipNRBCCCGEyAX0df8vhBBCCJHjSfARQgghRK4hwUcIIYQQuYYEHyGEEELkGhJ8hBBCCJFrSPARQgghRK4hwUcIIYQQuYYEHyGEEELkGhJ8hBBCCJFrSPARQgghRK4hwUcIIYQQuYYEHyGEEELkGhJ8hBBCCJFrSPARQgghRK4hwUcIIYQQuYYEHyGEEELkGhJ8hBBCCJFrSPARQgghRK4hwUcIIYQQuYYEHyGEEELkGhJ8hBBCCJFr6Kk1dD+/NRs3bMDT3R19fQNdiXhdKlUGP48fT+HChXUlQgghhHhV7yT4jPrmG0LjkmnQppOuRLyuhWO/Zd+B/VSqVElXIoQQQohX9U6Cz3cjR+FUrQFNOnbTlYjX9eOAriyY+6sEHyGEEOI1SPDJZiT45D7p6ek0qFsPCwsLXYl4XQkJCdp9Z836dboSIURuI8Enm5Hgk/ukpaVRrnQZFuw5oSsRryvw7i2cVy/k9LmzuhIhRG4jwSebkeCT+yjBp2K58mz3vKUrEa8r4I4/66f9xOFjR3UlQojcRm5n/wNV0iMuLviIHz5fxrN0PV2pEEIIIXIKCT4ayfHxqNFD37QQpqlPMStTG0dDXaUQQgghcoxcHnxUhF+aw+rVV0hXttL8uXFVRYUGVTHQRCEhhBBC5Cw5JPikE377BMe3bMDzsgcXthziabIeGXH+nF8zDze/RO2j1BlBXN6zhVtBKs3Pjzm/YDATv11HUNA97gdnkBxwgbtxdalYxYiIm4c4tOkwQUm/d3mlhl/D1Xk7Rzcsx+NmrLaVKC36Dp4757Jm3l4ePTzExinLuR8n3WQiJ1ARdc+ZpR83Y82BMO33/Y9U8fc5M+cDfhy5QVcCyeHPiUv75+9/XOBJ1n7Zmvlrb2reQfYVIcS7lQOCTxJ39/3E9pMm1O/bi7QzY9l5MgB9VQC+7v7cuqAJOgFp2kemBB/DeYUrCaZ66BkU0Ty+ObZ5mtLz508p76gmyN0NVZUGGHiv4az3Nbw2LebyvVTtc2NurmfZjDM4NO1Hqy4OXJg4Bb9oMLIuhUOKNzeDHuG+fiOXPW4Tl6rSPkeI7E0fy8IWpIcXpHRNW01E+XMrqL55QYwSAslXvq52W5XqxtrBLVmy1l+7/SJmBaxIfa5H8RplNO8gLatCiHcrmwcfFcFnJ7LhdHn6ftkcKyN90mLjcKzViPx5i1GxoRkJERUoW12Z/0RFqNsFYss0pLSV8muriPByJUa7DWpVMNc9HmGXL4znpt3o3LYw+oZlKVrcmIxEd7ZN3EXRD4dTJp8ehub5sUi7yr37qZrnReB3+SF5ktSU+2I78w/Mp7qtXMWKnCHhpgtPbOpRxvGvy82oUm/g52NO+bqltNv6xrXpM2sDH/Utp91+kcS753mgqkfFCsa6EiGEeHeydfBRpVzl0Eofan3yAQ6GajKSvPG7oTkQ16uoHaOTeP0izxzqUzq/Aaq0O5w/dIOidRthqf2t47np5UvROg2122mRLvjdNsaieGMa1bUl0tuN+HKNKGEGYWc34WvcljpV8mrfNy36IcGRJuTJq09GvAd+vunY1OhAtYLGGGrClxBZRwJPvPdzaPVKLvv5cH79XA4evUWKtosplrsnlrJ333VStdsZPPPYxjn3Z9pnKl3IjzwuYVrGAd9141kxfQk+AZktoIrEexd5mFGb8uWNNfuPPx77NnDm4nMMLJR9QEWk7y52r9rA6QM7uXDxQeaTNK/5xN0dw+pNKGIUya3jazh24rbu/TOlx9/j0uHt7F8ynRNuzzV7soqo+2c4vHQcOw/c4sGJGaxb70mSdJMJIV5Dtj5Lx/s445fWmOpVTDVbGTw+vIEbabWpWMlEs53Kfa8r2NVshL1hiuZguwu/p0WpWLeItsk+I/kyN30dqaDbjva+QLB9Rzp0Loeh5mTh73WTYnUbYK6fwrO797GqUE0TrpR3VRHmep4wx6ZULGVI7FUXAvTr0KxLBRkQLbIgM+zsnuGy9Ti+vk/JWzCOCzN/5sL9RE0g0gSX66dwcXug2Xsyx8C5r5/H/YjMgK/OCMD30mNUSSmaYN8Us8cbWTV9M+EZmSEpyNMT/SqNKarZ3YxsypAv4gjeD8FKs5+o0i6z51c3yvQfRC2nAAKfZrbuqDOe4OMVSpnaBbi8ZbPmQuUcB9c48zyzN5rEwIOsnbQZg2q9aF45mqOr9xOaYYB18dIkXDtLyOOTHNhxmlt3w8iQHmUhxGvI1sEn4dlTks2sMdXXXBH6bePwkXtYVKmPZfB94lMfcPNaMqVqliXy+gkCghJItq1DSbtYklR6JN505XGeOhS3fERITBx+7j4Ua92DInk0h/TkS5pQVJCy1QyJidbHwjofpmbm2n+sjMRrnDgQSvOvP6WIcQp3PS9h3aAHleylpUdkRZp944YPcYWb0bpnZ2o1b0oR8xDCgwwoXKspxrFhlKhZB83XntSw8/g9qEDF2tbaZ6aGuHA3rDm9R39MrVrNadGyHEnPAojUpCS16jk3vJ9Qpn5dTDSBX62K5p5fEKXr1de+Fqp4EiNucut6tGaf7EGzugUzXzP0Av6PS2EUcQ27DsOp7QTmJSvhYKR5SooPu8ctxarr91TNH4Tb4asUbtwEWwNIi3LldmA+0tXF+XjVcWZO7aK5KJELDSHEv5etz9ZW5Wti+WQTc776igPXilKqmIq0CF+eJNtjqqcJOolReG6ZiV9qbQqlPSKeKIICEzHW/NZJz58Sk/pIG47MjC7j62ND5YYlNf8gatKe3+JZXDrPfe+TbmZEsU6DsQ/cz/mzBzm04ggFh62iV2Nb1Gk38buSQqVmDTGV1h6RJSlduv6U79CDQsaQHvecqERHHAoZokq7gt8NR8rXKYAeKTw4uIewoo0oow3xKiK83Uiq1JKy2hykCVDhUZg6lcBOF0RuPaioCUlWSiUZCe7cvF2aCnXstC2o+iaNaP9hfs5OH8eVkJIUKamMEVIR7nmRZwYmFKvflzI2Ufh536dUvXrasBR2ZhVuESUweraZTTOXEFVrFp8Proyh5vViLrkSmJqXyq3bY2NkhIGB7G9CiNeTrYNP3vIjmLxnLz//uoiPBzah1Te7mDR/HPUrWGJgVIuPVx9jwuwJNK/tSIney5i7bhZNaxbSdkk5dJir2V5I946VMc/bnG8OH6FDRc1lp0aeogMYtXYZ/fs0xs5IjbFDBz6fM4bqFRrR8duJtG9YUPsa+kbVGbrbk49ammufJ0RWo3Tp+vsWplL9QppAkkG42wWiy3akajEDEv1deGxWj3JFDUl6cpGLbk8oUrcxNtpxzEpgukWJupktOEq31w3vcKq0a0s+TX3MZVfCijWktG3mIUTp8n2evz5ltYOgU0lPM6FM/9n0rOzDrmXHSNS8uzKmyM/9BkXbfk690saoEj0zw1JtG23wun/tBhZVWtO0/TA+Hj+HAX1r6lp1ErnpeQXLmn2pW1YGRAsh/ptsHXwUpnZFsLHUHqkxylcY28yRy1rGNk7kM8vc1je1J5/ucVr6FljbmWmvTv9C34oCpQppm/B/o2dogY1jPoz+7vFCZFGJyl1Z+RpQzsmAjFgvjhxIoMOID7E3SOOx92VMKtbFLu4Kl/2fkRRpR9ma9iTEqbTdvf5+RalQV2nBySD4/Ar8zT6nWyclQCVwy/MaBWvVQRWqzO+Tyj3Py9jWrE3GU83rBO3h9Kko9PQLUq9LE9Thz0nKUFqFPPH1daJ+x+ra/Sj2mgvBjvUpYhBOgkqzv5oYkRKXhJG5seY90gi+4kZQoh6q1KvcvKZPzU5tsZTuLSHEf5Ttg48Q4kXSeeTpRXJeCPI+xIFVZyg9cjmtKyk3A6hISkggyGsde0+kUqZsCqFRekQ9ekR6Hn3So+PAxpwIv5OcWj+FA1dqMWzaIByN1KjTA3h0N47E5z6EpVhpEs1THtwKJTn0Lokm+Um5d4Mze5fifsmFC2dCqdm7o7YVKc7nvCaENaJCceUugQzC7t0jIU3z3EfJ5NE3oWLXj7B7sJAZ345h9a/zuJlSHEfNZ0+87cr91PpUq2Op/a2EEOK/kNXZsxlZnT33ed3V2dUZ99k+dCj6Q/bRrowBFg7Wf7rzUJ0WQXhEHuwczbWtONGh6Vg6WGnHuWllxBP+JAR9u2KaDPSH1lKNxNCnZFgXxsI487EJwU/IsCmCpWY7LSaStLzGJDwJQs+2OHZWmV3I/196bCDB8XY4FTTTlWjeMjGE0Egj7J1stWN73jRZnV0IIS0+QuRQKU/P4h9cnYrVbbHWBJr/P92CnpEt9o6/dffm1TzG8vfQozAwx65Yyb+EHkVeB6f/hR6FmWNhbehRGFnZkNfIHPsSZV4YehSGlkX/FHoUBnnzU8DJ5q2EHiGEUEjwESIHUtaQ8/XRo0r3ysT63CJeJZP9CSGE4p10dbVs1pyAgADy5cunKxGvKyoqin0HnKlataquROR0r9vVJf5KurqEEO8k+Iz4cjjVqlenW4/uuhLxuurUrIXfLX9MTZUBqiI3kODz5kjwEUK8s8HNjZo0pnuPHroS8brKlCzFzdu3MDJ68dgJkbMowadc6TL8usVZVyJe15MH9zi8YSmnz53TlQghchsJPtmMBJ/cJykpiUrlK2Bvb6crEa8rLCwcW1tbvK9c1pUIIXIbCT7ZjASf3Oe3rq67D+7rSsTr2r9vH64XXZi7YL6uRAiR28hdXUIIIYTINST4CCGEECLXkOAjhBBCiFxDgo8QQgghco0sEHxURNw9zJJfluIeGovvoUXMX+tBpCqzVq2Kwf/sHnbuOMWZw6s55ptKeswt9s4bw+rT4YRe28Iv34zl4J00Yu8d5NfvfmTHlcTMJ2skPvHg0L6tLJ69Cd9o3YsKIYQQIlfKAsFHH3OzELy8wwj2PsQD/WQ8tx7ncZoSekI5NXcyF2hG904J7Bx/hPA8hhiYmxLkdZ3ISFfOPS+FXdRpPN3PceKmPYX13fDyT9C+cuSV5YxfHEDlDh2wubeeEzfSteVCCCGEyJ2yRItPyEUXQq3zYlu+N82to0kvW5USJioe7h7LztS+DG5hR0ZQAFEFG1KnuD5pES5cepoPC5sqdG2RTOAjS/RNHWnfyY7gh3ZUrW2DKsmbxRMuUntYR2IPTOWU4VB61jPWvacQQgghcqMsEHxicD3vT9k2/WhUUs21U5co1qgRZunX2bE5njYDapGHFG4cOI66dhOKG0Kk20WeOTWnc/MSpPlewDdPE3p3qYJR8AWuJNejTgkD4rz3ciHdiRSvQwQWGs7SJR9SXHKPEEIIkau99+CTEeuKx/0G9OxeBL1UX8572FK7jjlJEde4FVeSUo76RPtuZfn+aKrXK0ZibDxernep268nhQzSuXvRiwIdelEpr4pQVzdSa9TFISmJjJgYMmwq0L7/h3RuVICYZ6Fk6N5TiJxGGQt388hSpi85S2jMbfYvnsV293B+G9X2d2PllDJf53n8suAM4VFX2Tjxa6bvuEtK4l32zf6OSWuukvTb81Of4n5oH5sXzWb35RhdqRBCZD/vPfjEeJ3jSbkW1LCC1JAr+EcaER8cgtqiBAVUJ5nz41S2+IKNcV6iH98nQf8aHjfK0rhxPvQyAnH11KNhyzIYkM6D249QJYYRmmaCef2u1Apey/djZrFohTNPVdaaxwiRM+npW5An1BXf0Ci8Dt9CL/kSe4/f1+wVLx4rp6dvjlGIB3eio3A9EkyxQlG4eLhz7uAt7EuC10V/EjXJSRV/heWjFxNerhMtC9xm5/7rmW8qhBDZ0HsPPjat5+G8tAsWmp/zFP6YtadXMbRxcSzyNmPa4SMsmzGOrz4YxIRdO5kyrCGFzBsz89Qq2tvpoWdQkm92H2FoFSXSGNNs/Bl2zu1DBTt9jO3bM+f4IWZ99wXDP+9PnaLSzyVyLrUqAheXJ1iaWVK1VwcsYmMpU62cZq948Vg55TkeHs+wzJuPGr1bkvzoIaaa/xXt0BHroIcUrFkbK/0k3BaO42bFz2iYsZ95+0z4cFB93bsKIUT2817X6goLDeOTjwfptt6+9poD+pdfDddtZU+yVlfu8yprdaVH7eHz9vvpsHMz3Ry9mNBlJXU3raejrQ8zuv1KqaVb6Vs0Da/ZXZmdMIltv9TFIGYvn7feRcvt2+lT+DK/tP8Ju2mHGVEnnJUDhqH+/iCfVXTjx5YzyfPJQCpaF6V+qwYUtcwCQwNfk6zVJYR4r8FHOaDfvXNXt/X22djaUKBAAd1W9iTBJ/d5leATeuQrPjvVgc0LOqC+MoUBcxxZuOYjCsZv5ZM+Dxl1ciol765j5GerKD3hAMMb2JPh8R2DnZuwaWl3jG/NYcBPhszeN5LCUdv4ov8thmz7nmoW5xlVfzttjmynZyE94p89IcWxMLbZtN9Ygo8Q4r1euikn74qVKr6z/7J76BHi7yXidd6PSs0bYU4GQVeuE2eQREhIOoYvGCuXlCeNay43qNC8CZb6GQRc9MCiSUuKGULyg9s8M0gmLCidPCYN6NDmOStG/sTs+Ss48UiNhQyWE0JkY++1xUf8e9Lik/u8rMUnMDCQJ48f67ZAnZZIkioveU0yt9MTYkgytMLCREV8dBzG1lb884g3FSqVPvr/uyxKIy4iHsN8+TDVlFWtVg0LC2VUXvYjLT5CCAk+2YwEn9znZcFn3969OO/br9t6+yZPnUKx4sV1W9mLBB8hhASfbEaCT+7zKmN8xKuR4COEyL63ZwghhBBC/EvZKPioCLl1lgPbD3HzT6usv6hcCCGEEOLPslHw0ceuUAwnNl4hTRlh+T8vKhdCCCGE+LNslRTir3oRU60p5XR3q/zmReVCCCGEEH+UZYJPeswdTu/dxp5TZzm4ej93kzPL1apofE/tZeemNSzZ4ke5pnXI84JyveCrbJ/3E2tPX2f3tMkcupvxl8UV1aooPHeuZMvuPWzb6ap9j7Soy+xctYm9e7aw3zVIWyZETqQsU+F39gC7DvoQ+6eeYekyFkLkDlki+KSGnmPelAOYNe5H08SdzD4ShImR5iCdHsj+iT9zXr8pPfsUJuyeE/Xqm72w3Ng+H2Fe1/H1PMbl4BhSE6/+ZXHFpDvrWe1VhB496kFspObd0/HbOId7hXvTsa6auEjzzA8lRA6kp2+LQ+wx9l9JIs+f9n7pMhZC5A7v/QinVj1h54Rl5O09gvoOaoICn1OsYWOcDDLwXTeaffoDGNrSjpR7Nwgp3ZQali8qh7QIVy4FZFCg+ifMWDwVhyMT/rK4omG+guC9kX23bOnSt6XmE+hjXcAMl40beWzbnR4tJfiInCyFq97PqN6s+l8mMZQuYyFEbvDeg0/ija0ciG1Dj1qmqFJ8OXIijlqNyqGX4sm2bQk0710XU2I5v/kQdg2bYJX29+X5NL9JhNsF7ps3pkNLB83x3YuDx9TYGHpwyr8QI1YuoXsZI4wdezPmG3M2jF7IIyMzzSfQp1iviXxktZlJC29jaCZXuyK7UhFx9wx7t+3g9NnDbNzvR6quJi36Jif37mTT6gXsuVGKerWVDuO/7zI2SQ/Ge+c8Ji05w2XnaczecY8MzWMTn3hwaN9WFs/ehG+0SrqNhRDZ0ns+y6sI9bmOqnh57AwSuLZ9IccjalO9eALRYbcICHegYGE9np1fzRZ3B+o1NCEswP9vy6Nj4vC+eIMqvT+gguaYrlbFEBtvTbW2H9CvRyNs457x/Jkr7jdVlOoxgW7WrnjdS+OJJiw9yChCz3Efoed+gcfpuo8mRLai4um52cxz1qd5305E7v6Zi8/yoCyrlfz4EFN+dsa8cR+6FA0mtHATqpm/uCtZz9AeiygPfG96ctI9mATNPhFxZTnjFwdQuUMHbO6t58SNdOk2FkJkS+85+OhjVawokafmMm7qau6o7DA2jSfwfgJmdhUp43CNpSN/YtdzB5xMk7l90ZeU/JX+tjwWHzyuFaVZm2Lag73+3yyuaHD7CCvX7ubi+RM8se1Ag9IqfI8sZvPui1w4fg+ndi0pYpj5yYTITlKe7mLqsnT6ftWcfDzjSXAh6jUujn7GXdb8uAKbD0fRwCGDezceUK5J5mKmL+oyVgZAe3gEom9TnWEzFzOhZxTLJ1yk9rCOxB6YyinDofSsZyzdxkKI7ElZsuJt+/abkep9e/fqtv6/NHV0SLg6SfOTKj1aHRKSkFmskRoTog6JTtH8lKYOexaifYziReV/layOeBasjk/P3EqLiVHHJoarHwf8Vpahjo2OUceHP1Y/Do5T6x6WpZUuUVKdmpqq2xK5gfL3Vv7uL5am9pjVXj18VaD2OxzrM1Pdufkv6mvJanW020/qNh3nqu+mqdXpMafU3zbtr97zRKXOSHZV/9i0g3qNr/KMGPXh0Y3VX617qtkjNI+L2qP+pGoL9WIvZR/TvMb5H9TN23yv3rBli/qgywN1vPIgrXT13V1D1C3bzVDfSMwsUaUHqrcMa6D+YPqlf9gv3x/lOKQcj4QQuVcWGNBiiJWDrfYWdT0DKxwc8mYWaxhZOuBgpQzBNMSuoIP2MYoXlf+VCTYF82OmNAFpGFpaYmFqS+Giv5XpY2FliZltYQrnN9e2FAmR3SgtNNevx1GsnCN6CTfYttCZjFr1KZAYTdjt+yQ7OJFfL4wza1bja9eEaiYRRL6gKzk6RkWU10UCSvWma83M4c8ZMTFk2FSgff8P6dyoADHPQkkOlm5jIUT2JCN5hcjm9PQtKFpUxaG5Y/h1lR96dsboxwbyON4MhwoVMby6itE/rSPcrjhGSQ/w8I0l7wu6kuON0/BxuUbpVm0pqLsSMK/flVrBa/l+zCwWrXDmqcqa5JuHpdtYCJEtyers2Yyszp77vMrq7Or0WCJijLCzNSUtJpRYIwdstY2nGcSGhqFn7Yi5fgTBkXkp4GCqfU5abChRamscrPQJD4rE/B9aT9UpUQRHG+CQ31LbMpoeG0uSURrRoenYOCktqCriYuLRT48hMj0fBbNoC6qszi6EkBYfIXIAPUNLbehRGFn9FnoUBlg6OGJhrDzG9n+hR/HqXcaa55rko4Au9Cik21gIkV1J8BFCCCFEriHBRwghhBC5hgQfIYQQQuQaWSL4KLMs3zq/kzWLF7Ns1Q4u+Eei0k6/f4ptK5az7eB1wtNCuXJwA8s0j1m6eAmrN+zjcmCS7hUg8dkV9m9YpqlbzlZnNx7FyArTQgghhPizLBF89PStKFPXgmtrV3HbpCGNKthoPpg+NqUqk/oslsqtq2Jn5ED5khEcXnKSPM0+oIm9Bz/1+Iz9DzMDTt5CVSkS4cy6QzFUa9eQ4lbSmCWEEEKIP8sy6SDx1jXuqurQrqPT/+4IUSVeJ714Fypob0RREX7dh4iijWlY3obSLdtQQe8aPrcyl2FUqyK5fv0pZVq0o8w/3Z4ihBBCiFwriwSfdB66uJFUsRE1bfR0ZRDvE4BZlVK6IBSHx0UfnOo3pYShijD3k/gZNqdpbRNtrSrWBbfrNtRuXAGZ4UaI36mSnuJ5eAf7zj/WrrIuhBC5WdYY45MRhKvbQ8o2bIzd/z5RKv639SlbKTPGZCR64nYF8qZfZckvPzDtoC2jN8yghUNmUIryvMgtk3rUq545zb4QIpO+qT0x7itwf56X3y8rhBAid8oSwSct4iKet4pQp1HR/3VzqdPvcVdVjHK6bqv4axe4oW7OJ9/XIubicYzqDKZNObPMSlK4dtET05qNqfz7Ul9CCA1V6k28bzhRv7Ft1unbFkKI9yRLHAeTbvkSaFqVKuV+76RKuncJCtchM8ekcvOiB1RvQvV81enWuQgee/fzVNdur0q9gatHPFUbN+C3KKQdExQcovtZiJxNWaj02sFVLN58Bpfd85m95DTPdYuEJj88j59ZI2rZPuHMxuUcuhqj2TsyRd85w/69W1m17AAPEpQS5W7Kwyz5ZSnuobH4HlrE/LUeRP7vJslUAjwPsnfLIhZtukKs3DwphMhmskTwMbK1xzI9hpjYzGXD1BnPOHNaj1rNrTK30+9x0TWYyg0bYIkh5Xt2x+nOHo74ZA5sTrpzHq/gCtRr9PsVbUrwSZzPhOq2hMjZ9PStyRN0nENn7mJUqQGpxyey2VXZPzIIOO+BSTUnfPd4ExpwjG3H7mtKVQSdm86ETUk06Naf9lYHmLXmtubx+pibheDlHUaw9yEe6CfjufU4j9OUd4nHY+V3bH5YkfYdHfHbsJ+72nIhhMg+skTwyVtpGGOGpLD0k08ZN2UGs+cexKx9fyrmgfSYu5xaOQfn2wYkht7nWTyYOHWjU90gNk2eyRGXs6xZsJtAEri6byUrli1l/rTvGNh7KaqKFXTvIETOptzV6H0phlaDBlGvfBkK2SWSmKTSlD/HxeU5ZgaGVOzVnryxiVSoWQ6DRHcWT/ejyWcdyG+gj75BOo8fPNK8koqQiy6EWufFtnxvmltHk162KiVMIPrSfOZcqMyAjmnsm74f28GDqJp5b4EQQmQbWaTL35JGwzdycN88vv/mO3744QtalMocpGxoVYY2w9fj+cCPtT80obC5cnVrz0dr/fE4MIGOjVvwzVpvbt06ysyRX/D5l8MZNXYuu1wOMayaLJUocgdVnDuXghvSukFeMhIu4/u4CtWrmGjHz3ncK0qrPm0oqncVD79S1KtnRpzPca7na0qDQsohIJbL3ncoVLqk5ucYXM/7U7ZNPxqVVHPt1CWKNWqEOSl47TuCXkEjPA/5U/rzVUwbWFruoBRCZDtZJPhk0jO2xNpS7soS4t+KveRCWIXGlDPJ4OH+HUS3/pLWhfSIdLtAdMOBtCumT8LNCzwo1JhKJimQkU4ex0LYaK4NUoMPc/hmAwb0LU1GrCse9xvQs3sR9FJ9Oe9hS+065qSjIjYmAccKbek7oAe1C8byPFRujhdCZD9ZKvgIIV5HCj4ul1EbxOF2YCn7wvoxY3Rd8hKP54U7VGvVEDOlC8vnBjHqSO4FpmBWswcN1d4cPnuUDRue0m3+NJo76BHjdY4n5VpQw0oTiEKu4B9pRHxwiCb4mFC/czturxvJhJkLWO8cAJbSoiqEyH701Bq6n9+a70aOolGTxnTv0UNXIl5XmZKluHn7FkZG0smQW6SlpVGxXHnuPrivK/kzVeo1pvdaTKXFv9I4Xz5sXxBI0mOfEpxij5N95sAcdUY8EREq8jlY/m8aiT9LIS5GhYWVdup0raSoIOIN8mOfTUPP/n37cL3owtwF83UlQojcRlp8hMjOVAkEXtyDR0pR8ufJ+8LQozC0dPpf6FHoGZhj98LQozD5U+hRmOYrmG1DjxBCKCT4CJGNKQ22ZmU/Z8WaIRSVPCKEEC8lwUeIbExptXEoXJjChZ0oaCfTlgshxMu8kzE+o775hlKlStGte3ddiXhdTRo15va9uzLGJxd52Rgf8epkjI8Q4p0En6mTJ7Nzx06sra11JdlHQkKC9sSTVT57dHQ0125cx9DQUFcicjoJPm+OBB8hxDsJPtnZ+o2b8fe/xexZ03UlQrxbEnzeHAk+QggZ4yOEEEKIXEOCjxA5hLKu3Zmda1i6eAnrdpziXoSyVlcM/qe3smr5Jk74hJEc6sOBjcs0j1ms+W8FW/a58yxR9wIaic+usH+DUr+crc5uPIqR5deFEDmLBB8hcghlXbvqltfZsMoT6wYtKW2rj56+FaUqZRASV56m1ezJ41AJpwhnNp7MoOUHbcjr+TMDPtvMU93qE3kLVaWIpn7doRiqtWtIcSs5RAghchY5qgmRY6Ry+5ovZrW70MLp91079kYC5TrWII/mZ7Uqihs3nlGqcXNNMCpBizbVSbrhzYPUzMcqq7xfv/6UMi3aUUZ5ghBC5DASfITIIdTpD3FzD6VS44ZY/m/PTsE3wIgKpTNnN1TFueLuY0edxuXRV0XjfuoyNk3aUlk3obMq1gW36zbUblxBVl4XQuRIEnyEyCFSnl/E+2Fp6jYq8L8dW5XqSwDlKW2cuR3tdRFflS0xV5cyafRYLlp/x5IZnbDRPSHK8yK3TOpRr7ruCUIIkcNI8BEiR1AR6nKRx04NqV309906+f4NDIpVIzPGKKu4e2LZbCif14nD5VQCDQd3pYS5tlIjhWsXPTGt2ZjKMgm0ECKHkuAjRI6Qxi3fu9hWrUGJ/zXWpHPvcgrF65hpt1SpN3H1iKN643o4VO9FmyLeHHJ+hG5cs6b+hqY+nqqNG5D5DIWK8OAQ3c9CCJH9SfARIkcwwNbOhtToaOJ1d6CnPDuJh7oedXWTjiffP4d3UGXqNsiHnmFZunWryPW9O7mVnFmfdOc8XsEVqNfI9n8HhpTgkzifCdVtCSFE9ifBR4gcwZDqQyfTKX0twz79iWnTZ7HsgB4d+lXHGBUR986yas5OHuplEHwvgERNUCrepSflQ7Yxa9ZJ/O+6sGbBbgJJ4Oq+laxYtpT5075jYO+lqCpW0L2HEEJkf7JkxUvIkhXiffu3S1akxESRZpoPcxmf/BeyZIUQQlp8hMhhTKwk9AghxItI8BFCCCFEriHBRwghhBC5hgQfIYQQQuQaEnyEEEIIkWtI8BFCCCFEriHBRwghhBC5hszj8xIyj49435R5fMqVLsONm366EvG6nPft58rly8xbuEBXIoTIbST4vIQEH/G+paenU7ZUaUxNTXUl4nUlJSXRp08fZvw6S1cihMhtJPi8hAQfIV7dkKHD6Na9O507tteVCCFE1iJjfIQQQgiRa0jwEUIIIUSuIcFHCCGEELmGBB8hhBBC5BoSfIQQQgiRa0jwEUIIIUSuIcFHCCGEELmGBB8hhBBC5BoSfIQQQgiRa0jwEUIIIUSuIcFHCCGEELmGBB8hhBBC5BqySOlLyCKlQrw6WaRUvCkhISG4XnTRbYn/qnSZ0lSpWlW3lbtJ8HkJCT5CvDoJPuJNuXjhAoMHfUzTjt11JeJ1+bhfoEf3roybMEFXkrtJ8HkJCT5CvDoJPuJNUYLP/GWrGbdkva5EvK7D29ZjEBMswUdHxvgIIYQQIteQ4COEEEKIXEOCjxBCCCFyDQk+QgghhMg1JPgIIYQQryg5Ph41erotkR1J8BFCCCFeSkX4pTmsXn2FdF2JyJ4k+AghhMjR0qL98Tywg5Pb1nP1fpKmJJa7J5ayd991UrWtNxk889jGOfdnmY+P8eHkqsUc27eHM/vPEZLymPMLBjPx23UEBd3jfnCG9jlhN45wZt9mnNft43Fs5swwKc+9OLJsLFt2+ZKWEojrqjGsmHeE8Aw94h4dZdvkH3A+8/QPrUYqYh6c49ze1Wydtwr/YJXm897Bc+dc1szby6OHh9g4ZTn346SV6U2R4COEECLHin+wh1WTd2Fapydl8riye8MZHnpf5OH1U7i4PdDEF1BnBOG+fh73I/JqtlK5vmYiQUU/pnW7IjzzC8DQsCj1+zbHNk9Tev78KeUdE/Hb9i07LuajXrcB1HU4xeq5p7TvZ+xQkIRrx4k3TMdzx0lSLdPwO3aGe7ecOe2SSt50b9wu3NK1GqXy6PhENuxOoEqXQRSO28iRIw8xsi6FQ4o3N4MeaT7XRi573CYuVaV9hvjvJPgIIYTIkVTJV9g5cTNOH42hagED8hbtTO+BzShRqynGsWGUqFmHPJrHpYadx+9BBSrWttZsqUlKDOfBpSsk56lG876NyGeQQYSXKzFlGlLaCqK957Le2Z6OQxpipq+Hmb0dsTc8te+ZFuXG7YclyZsSiFPXIZQzjSHd0YDQe060G9AUk8REilashKHmsXF+S1m5RkWbLzuSN3g/btcLUa1+UdSqCPwuPyRPkppyX2xn/oH5VLeVFp83RYLPSyjrxQQ9faLbEkIIkV2EnV3LNcO21KtsqtnSx6FmN2qUNUeVdgW/G46Ur1MAPVJ4cHAPYUUbUcZeOSWaULP/J3B+PDsOh+BUpozmmfHc9PKlaJ2GWOhH4LHrILbNu1FMeVmlqyrwEUkmZsoGMZcv8tjQkhJ1O1LcWvM8Tx8MzcpSp2MtjBM98PMrSvna+TXvG4n7pq2kFXXk4e6ZbFhzi/oTVtCqgjEZ8ZrH+aZjU6MD1QoaY2gkp+o3Sf41XyA+Pp6pk6ewc8tmAgMC6NurD3fv3tXVCiGEyNpSeXTjJmYlymFjoCvSSfR34bFZPcoVNSTpyUUuuj2hSN3G2selp6WSt9Rghn1bhavL5nIjGjKSL3PT15EKdYtA2kOePDKlRGUlEKlRq8K45uaPU/3myivj73kdp9bDqFtCE2CSLnHzuhmNP/qAAsZq4nwu8iRfPcoWMUCVeoM7/vpUaN6d5gPH8MWkX2hWzUYTiNTEXnUhQL8OzbpUwECzLd4sCT5/4+iRI7Rp1ZqQyGi2HDnF9uNnadKuIx/07c/M6dNJTEzUPVIIIURWZWSsCTaR4SRrh8ekEOjlSXh6Bo+9L2NSsS52cVe47P9M8xg7yta0Jz4mkDPbj2niiwGFWvWmnHEo0fEZJN505XGeOhS3fERInBUW1uaYmmd2PcX4bsAzpDO9BlbXhJlr+PlYUKNNdYw0gSXB7wIBeVpSu5bSGpTKPXdvrKvXRO9pECo9U4wNU0hKMsTUWBOh0p9z0+uW5lGp3PW8hHWDHlTStkCJN03+Vf8gMDCQjz8axPwFCxn/6wLGTPsVaxtb9PX16dZ/ABsOHONJcBhtWrbm5PETumcJIYTIeowp33kgdvcWM++XWexet4UwiwrYGmaQlJBAkNc69p5IpUzZFEKj9Ih69IgUg7vcObiNg0c8uOJ8jLS6A6ha0ICk50+JSX3EzWvJWFuXokn/Wtw/vAeP42s5cMKCAfPHUcFGj8TbrjykLhXKGmveP5WHHt7krdGEwppNtSqa58+iSQ6+RVye/BgaVaNZn6rcWPkJcyaNY+Oyk+gXKYNh2k38rqRQqVlDTKW1562Q1dk1UlJSWLFsOZs3baLfkGH0GTgYA0Nl6Nnf87nkxfwpEylapDC/TJ5E4cKFdTVC5G6yOrt4U97U6uzqlAgi40yxsTPTdiNpy9IiCI/Ig52juaYsgejQdCwdrNBLjyI+UfO4xECi0+0p4GSd2dWkiiM6Uh8rO+Xxma+RFh9MbJoNtvmUkPOK0tNRGRppu8gyqUgMCyTBwAl7GyNd2Zsnq7P/Wa5v8XG5eJF2bdpy/eYt1uw5SP/Bn/5j6FFUq12XtXsPUaZqTbp36cqSRYtJTU3V1QohhMgq9ExssbXL+7/AotAzssXe8bcglBdrB0ttGNEztMbC0ghzx1I4OVn9Pr5G3wLrPwQnhZG5478LPQrNueX30KPQJ6998bcaesRf5drgo9yt9dWXwxn78zi++mkCUxYu0+wIBXS1L2doZMSATz9n5S5nLl27Toe27XB3c9PVCiGEECIrynXBJyMjg7Vr1tCxXXvsCxfTjtup17iprvbfcyxYiOlLVvLptz/yww8/8s2IrwkLDdPVCiGEECIryVXB5+qVq3Tp2ImTZ86xZMsuhn79LSZ5lOmr/rtGLVqx8cBxrB0L0b5dOzau36ANWUIIIYTIOnJF8ImOjuanH8cw/Isv6Tvkc+at2UThYsV1tW9OHlNTho38nkUbtnH42Am6denKdR8fXa0QQggh3rccfVeX8qvt2rmTubPn0LxdR4Z8PQozcwtd7dt38pAzK+bOolXrVvzw449YWVnpaoTImeSuLvGmbNu6lfFjx+HoVERXIl5XZGgIrVq1ZPGypbqS3C3HBp87t28zTrPTpKSlM2rCZMqUr6irebfiY2NZvXAuLqdP8OOYMfTo1VNXI0TOI8FHvCkHnJ21wWfCxIm6EvG6Fi5YQI+ePRj13Xe6ktwtxwWfhIQEFsybj/N+Z4aMGEWn3n3R03v/i7vd9vNl3uTxWOQ1Zcr0aZQuXVpXI0TOIcFHvCnKPD7r1qxlw+ZNuhLxun74/nvq1KlLrz69dSW5W44a43Ps6FHtUhPBEVFsOHCUzn36ZYnQoyhXqTIrduyjcduO9Nd8rpkzZsjSF0IIIcQ7liOCz29LTcybv4Cxs+b9b6mJrOa3pS/WOx/lcVBI5tIXJ07qaoUQQgjxtmXr4KMsNbFQE3Z6dutOpdr1WbvnEFVr1tbVZl02dnaMnTmXMdN/ZdasXxn6yRCePHmiqxUie0pLS9O2Yj57FqQrEUKIrCfbBh9XFxfat2mnXWpi9e4D9P/k5UtNZDXV69Rj3b7DlKpcnW6du7B0sSx9IbInTw9POrRrT0x0NJvWrWHUNyMJD5OJPIUQWU+2Cz6/LTXx809j+XLMOO1SEw4FCupqsx9l6YuBw75g1S5nvK74aGeU9nB319UKkbUp4WbUyFF8/913DB35vfYiZPPhU1jY5add23Zs3rgRlUqle7QQ2VdsoAcHt+/i8lP5Pmd32Sb4KLMgr1u79k9LTdRv0kxXm/05FnJixtJVDB31A6O/H83Ir7+RpS9ElqWEmc2bNmnDjbmNvWZ/PE6jFq21dcpEnp99+wML12/lwOGjdO/aDd8bN7R1QmQfqVxa9QU/rfHTbpnZR3F6+XliLHLE0NhcLVv8BX9bauLEqTNvfKmJrEa79MXBE1g6FKB927Zs2rBBrphFlqKEGCXMOB88zIL1W/j8ux8xzZtXV/u7YqVKs3DDNrp+8BFDhwxlwrjxxMbE6mqFyOoMcarRhibVMxevjvdx53GpxlR/d3PgirckSwcf7VITY8bw5RdfZC41sXbzW1lqIqvRXjGPGs2ijds5eOQ4XTt34cb167paId6PuNhYbXhRQkyX/gO138/ipcroal+sbZfubNKE+cQ0FW1atWL/3n26GiHeHHXqU9wP7WPzotnsvhyDWhWDr/M8fllwhvCoq2yc+DXTd9wlJfEu+2Z/x6Q1V0nSPTc95g6n925jz6mzHFy9n7vJqTy+vI99JyNwKJlP84hUbrlcwalBY6ykwSfby5J/QmVOxd27dtGmZStUBiZsOnSClh066Wpzj6IlS2mumLfSfcDHfDr0U8b9PFaumMV7sX/fPlpr9seE1AztYrztuvbQ1bwac0tL7QzqUxevZM269fTv24/79+7raoX4b1TxV1g+ejHh5TrRssBtdu6/jp6+OUYhHtyJjsL1SDDFCkXh4uHOuYO3sC8JXhf9SVRpIk3oOeZNOYBZ4340TdzJ7CNBmBgZ42ATonl8DBbm+qgzAnD3MqF24wIY6N5TZF9ZLvgoS0307d2HzVu2MWvlOr7+ecI7XV8rK/rtijk5A+0V8749e3U1QrxdSjhRQsrqNeuYsmgF306cgsV/WHOufOUq2ok8G7RsS78+ffl15iySkn677hbidSThtnAcNyt+RsOM/czbZ8KHg+qjVkXg4fEMy7z5qNG7JcmPHmKq+V/RDh2xDnpIwZq1seIpOycsI2/vEdR3UBMU+JxiDRvjZKAi1Osy+rUbU9xQE46eX+RqagPqFJfYkxNkmeCjLDUxfeo0Puz/Ic07dGXp1t3vbX2trOi3K+ZpS1axdv0G7Unj3r17uloh3qzk5GRmz/pV+z2r36KNNqxUqFJVV/vfKBN59vjwI9bvP8KjJ89o26o1p0+d0tUK8e+oUrw4eEyNjaEHp/wLMWLlErqXMUIV54K7f2Ga92yOk9513Lzz0Kx/F8qZP8fNPZmajUuQcmMLB2Lb0KOWqeZ1fDlyIo5ajcphQBzuLo+p1rgKmlci1NWNtBqNKWmse1ORrWWJ4HP82DHtUhNBYRFsPHiMLn37aw+O4q9+W/qiUev2/1v6Qq6YxZt05vRpbTfzw8dPteGk54BBGBi8+StdG3t7xv06n+8nz2TG9Jl8OmQoz54+1dUK8WqUsTyx8dZUa/sB/Xo0wjbuGREZEO3pSkjNfrQrrk/yvYv4mXWmoybgpEW4cCm0FlWd4nnicx1V8fLYGSRwbftCjkfUpnrxBGLjPPC8W4maZVNIUMXj6RZIlUYVUKfo3lRka+81XTx+/JjBgz5m7tz52qUmfpo++40vNZEcFkTMe5sTUEXEnX3M6NeE2XvDeFOrwSqhsPsHA7VLXwQ+C9aepE6dlKUvxH+jhA4lfEybNl0bRpRQooSTt61mvfqs3XeYkpWqagfyL1+6VDsLtBCvQt+kAR3aPGfFyJ+YPX8FJx6psTBI4ZrLDSo0b4KlfgYBFz2waNKSYoaac8KD2zwzSCYsSIVdsaJEnprLuKmruaOyw9g0nsD7CaQ/uMbdtHRCAuMwSPfn+k1IfOZLiNxgmyO8l9XZlaUmVi5fwaaNG+n3yTD6fDT4rcy6rEp1Y1aHoUR03cucERW0ZerEOJJNLDDVXcD+/+03LSPpNNM6r6Hmum10LPJ2cuZVLw8WTJlI8RLF+eWXX3Aq7KSrEeLllJCxZvVq1q5eQ8+BH9N/8KcYGb+fNv3gZ09ZMG0SwU8fM2XqVOrVr6erEbnNv1udPYXIoGhM8ufH7KXH8gwyMgzIbMRMJyY0BhMHW0wyYgiLMMLBIS9qVSzhEYbY2yvTNGQQGxaFsb0d2XUSFVmd/c/eefBxc3VlwrgJFClZiq9/Gv+WZ11OJdjPh5SCtSlqo0datDurx5+j4a/jqGqq/sv22xDrPZGv59gwedtIihi+vX/qtNRUdmxYy55N6/hkyCcMHTYM4/d08hLZh5enJ+PHjSd/QSe+GTuRAk6FdTXvl8uZkyyZOZXadeowbtxYbO3sdDUit3jV4PNB3354eXnptt4uU1NT/G7567ayDwk+f/bOgk9oaChTJk3Gx+e69gBbv2lzXc0/SeLxlTNcu52HOn1bUcBQk+ufeXEvtRaVisZzZddGoisNoYnTU9wOH+Lq02J06mXMyQ1PaTi0KdHerjwIyU+7LzqTdmYWC+Zv445+Ez776WeqJW76w/Z4ujcuAKo47rqcwu/+A8JUdej1SVPMQy5xzPk4YbbdGNTdlqu7NnNTrxX9+tfE7KUNOOlcmd+JNVGDaJ/fn1th9jQdNIxyKi/On3blqVFLhn5SD6NYT3atvEutzwdR2uK//Tn+d8X8JJDJmivm+g3q62qE+F1EeDjTpk7TnDC8+WrMOJq0aqOryTqSEhPZuHyxZv/byzcjv+HDAQNk7F8u8m9afN7V9buenp7up+xFgs+fvfWjiLLUxPq16+jQth12hYqy8eDxVww9ChPsC8RxYdlqrj1XaW9PPLdkPOfvpSkDXVBFuOPmEYKRdSkKpXpy9dkjzq3eiJvrbZLMy+AQfpjz9yGfoQHFWg+iVoE8tPx0qibkOP2/7QKoUx9xeMpozsXXouOAagRvW4DLIxXGjoWIv7SfUHUaFzbs4UH4HY5vPcqT9JfvAOqMR1z2fEJGYgq2tZpiGbiB2RO3kFysIeWNfTlz2INg5XUMjEi4dZrrT9N1z3x9ytIXMzX/XkNHjWa05ssui0WKP1JmAd+yeTNt27TFzMZeuz9mxdCjUGaDVmaFVmaHVmaJlqUvxIsogeRd/CdyhrcafHyuXdMOVjx+6jSLN+9k6Df/dqkJffI4VKKEYwjBz9KJ9zvK2evBxEYnosaCoqVbUL9ZUW0guuoVQJ4kFRW/3sGmk/OpbxPDzRvPKd+wAUovbVqkC9fulqdaPWUWzv+/ncLVFd9wNKMvA9o78uTQHh4VbEXVIgakRbni86A0FkkPKdLnK5pryoydSpL/FbqtUoMv4hfagsHjBtOwbgs6tylH0tMAwjKMKFi1EhbJcSSrNLnHrAwVW3emTuk3N85JWTdJWfpCFosUv/Hz9aVH1+7sP3DoH5eayGqU2aGVWaKV2aJ/W/pCmUVaCCFex1sLPt+NGkW/Pv3o/fGn2qUmihQvoav5l/QdsbWOJTo8EE9/GxrUsCAuKpKM1NtcCi9LvZIGZMS5c/V6Kna1OlGvkBFGxgao4jVl/qWoXs8OJacr3V5BxRpRySEztf9xOz36KLt2ROCY/wm75kxgz62GjFn0JcWN1UR5nOOunjnlGnWhrHU8V119KFG/4StMW64izMOduCotqWKthCQVEWFRmBYuQX4DNYZW1pgmJ5CkqYq/dZr4Um3f+BigPy4WuV9zxVy1UmWCg4N1tSK3UELCxPET+GTwJ3TuN+CVl5rIapTZopVZo5XZo5VZpJXZpIUQ4t96a8HHyMgYpWUwOSnxP/W/6unn1ZzA03jqdgHjWi0pbGNBfFQYd4954tC8CcpCubGXXbirX4/2PSrwW5tJzOULBDo2oHJB5VdMwtf9Kk71GmtCh1L75+0EX28eGtSgadduDPh+JmPGf0Q5WyUgxXPN5TJF2n1G89LGZCS44321ENUbOL3CP1w8Pu7+lG6Q2eKkTHnu7RFOzY7tsNe8p4Em+ORJiicxwRe3W4WoX9My82lvQWpaqnbws5mZGXly6OKu4u8579+vDQlxKWna2b/bdft3S01kNcqs0crs0cos0sps0h/068+D+w90tUII8XJvLfjM/HUW+5z3c9J5D8MH9OH+7Vu6mn9LX3vbYYp5ReqWMsIqnwVBV3bgb9GeWgWUcJLCTTcvrBr3oLauNUcp83e7jEOdOmQ8fkZ66nWuXM1LpTpWPHkY85dt8phgkBxDmoEFRpp/kZTnXly7lUhGkjeXrjjSrFtNjDSvGnPpLPes6lPWIpy4l/QaKc+9eqMo1eorLU4qnp9ezlWzLxnYrZC2BcrAzJI8PMdr311Kta2L+Vv4S8THxbFw2iTGfD6EjwZ+iIe3F9bW1rpakZMpYeDD/h+wctUaTUhYzncTp/6npSayGmUWaWUiz3rNW2uXuFFmmVZmmxZCiJd5a8FHUb5CBfbs28sHfXszetjHLJ4xhcSEeF3tqzO0aU2/ofU0QcEAy3wOFK3Rh3bN8msDhCrVj8uXUqnRspG2ZUWhznjGrZuhJD6/S3weR/SSnxEansZDd28y7Cz/sm1RtR8dqt5h6WfDmPnLJDafSqFw6bwkXD/PHZN6VCmptCOl89TPjziieR6i99I7utKi4sDWgogbxzm4ajKbL9fiuzkfU9g4s/VLTxOyrAraULl5Z0qavdkuLsWpQwcY1KUthuo0Tpw+Re8+fZDBeTmfcvKf8+tsbRio26wVK3fu14SEarranEWZTVqZVVqZXVqZZVqZyFOZdVoIIf7JO7udPSoqilkzZnLh/AW+GP3Tv1htXUVcdCxm1tbalJYeG0FSXlssXjIOOOH5E9JsC2OtncpG8xph4RjZOpBHG1j+/7ZSlEDo43BMChbF6gXT36hTo4lLs8Ty5fexa6kz4gkNDEHfvij2f/rAKoK9d+Cr34FWtay1Ae5NefzwAfOmTCQpPpap06ZSrXp1XY3I6c6eOcOkib9QXhN0hv8w9p3MupyVXPF0Z8HUiZQqUYKJk36hkJNM5Jmd/bsJDMU/kdvZ/+ydT2B49cpVxo8di3k+G0aNm0ThYsV1NdlNBvcOTmXT6eC/LkWhZ0a9wTPoVE3pIPudOuMpx+cu4Yl9eYqVb0OregXeWJNbclISG1cs4ei+3YwYMYIBHw18K+sriawn6NkzftEEnnv37zNSs0/Vqt9QV5P7KGPZtq9fzd7NGxjy6VCGfvopRkZ/3g9F9vBvgk96zB2ObNlORLnhdCvkwbYD4dQfPJia2uEPKiLunuP85TCsHM15FlOM/t0rEHf7IBs2BFDvu0EYnVjArlsVGD6xM4nHl7DR1Y6PJn5CJTPlgvcpHie8efDoAXkaDKN3rezXZSzB58/e1Hn3ldWoWYODRw7TtlULvhrQhzUL55GSLfvmDSjdZaJ2/MTU///fwjl/CT1aeqY4lq1ClUY9afMGQ4/r2dMM6tqO2NDnHDt+nEGDP5bQkwsoS02sWLacLp06a4J0ZdbvP5qrQ49CWWrjo8+Ga8f/uHteomP7DtrZqUXOZmBhRrC7F2GRXpy8ZUDs5c243FfWe1Px9Nxs5jnr07xvJyJ3/8zFZ8qgCX3MTJ9z+UYsz92OElmyEKFnPHA7e5AAu1KkeZ7nQYIaVfwVlo9eTHi5TrQscJud+69nvqHI1t558FEoJ+VPhgzhyPFjhD8L5OOu7fG4cE5Xm3Pp6dtSvesH1Cttriv5b5RZmn8aPow1839l9uzZLFi0EHuH3NW9kVt5e3nRqUNHXD29tCf5QZ8Pf2/ra2VFytIbM5evYfCIb/l21Hd8N3KUdrZqkTOlhV/A87ENZlYV6Nbeiri4slQob0zK011MXZZO36+ak49nPAkuRL3GxTXBR0WIqzvhVqbkr9yb+qkPeGauxqJAR5rbPyPIriZVbJJxWziOmxU/o2HGfubtM+HDQTITfk7wXoLPb/Lnz8/ipUuYPmMay2ZNY9zXXxASFKSrFS+iNOdvXrWMz/p2p37tGtoAKUtT5A7KyVs5iY8a+S0ffzWKWcvXZpn1tbIiZVZqZXbqvDb22tmqlVmrZSLPnCfc9RxPi7SmR8sSpPqc5HaBJtSwSufatk0YthlIxbwQ7+fMhZh61C6ntIbH4e5yi9ItetKgJNy46Ildkw9oU9WMIBc3jGo3pWCGFwePqbEx9OCUfyFGrFxC9zLSbZoTvNfg85tGjRtz7ORxalSpxLA+Xdm6ZiXpaUozpfj/rnh6MKRHJ+77Xcf54EG+GD5cFiPNBf641IRpPrs3stSEWhWN/8FxDGv9JRfC/v9ItTjuHJ3E8PafcCwwMygkhwURk6r98W+pEh9xavYABn+8lIBXWNLl78QFXmTl120Zu9SHly3gkhZ9m4OTejD4m11E/0OW+ePSF8qs1crs1cos1iKniMXjwgMaf9iTggap3DjjQcEGdTFNjuD69TiKlXNEL+EG2xY6k1GrPgUSY0lP9MTrTi269yiOfvo93LwsaderFnlUEbi5hVGtrhOJCbHExltTre0H9OvRCNu4Z0Rk6N5SZGtZIvgoTExMGPHN1+w74Mzta5cY0rMzPpfezYq72UFkWBhTRo9kzoQx/PTzGNasXYNTYblrJTfw8/OjZ7ce7HM+yIJ1W/ji+zFvZKkJPX1rClikkFSgBuVs/n9QscA+TxyRZlWoUMgAVaob8/u3ZMrKF69MrZ+3IGapTzErVwen15yF3NypEPrhaZSs+ftkpC9iZF2UvGnBFK5WD8tXOJL9tvSFMnu1Mou1Mpu1LH2R/WVoQoybXwUaNbRAnRGMz/UoSHxOhMqCokVVHJo7hl9X+aFnZ4x+bCCP401JuHqewNItqZ1Pj5TH5/GhKQ3LGKBOv8/dACPiw56BZX06tHnOipE/MXv+Ck48UmMhQydzhHd+V9erOnn8BJMnTaZKrdqaA/1P2NjZ6WpyF2WRV+ftW7R3bPXr14+vvh6BqamprlbkZMpJee6cuRw7epRPR47Wzrr8ZudiSsF9WjucrZczc3i5/3cVlILb1LbsMJrD/B9raUJIKsF+PqQUrE3Rv4SkTKrUayzq/Q3mP5xmaMPXa4VMeb6RHwfd4mPnWVTL+8+HJlWqB7O7zaLUvL301HZfvLq4mBhWLZiNx/mz/PjTGLp1766rEVnF697OnqyEWUtlglg0QSaWiBgj7GxNSYsJJdbIAduXXDMox9zfbw5JITIoGpP8+THLxqFH7ur6syzT4vP/tWnXlpNnTlGkYH4Gd+vA/m25r2/e/4aPdhyP1/nT7Nq9m9E//iChJ5c44OxMm1atiUlKZcOB47Tv3vMFoSeBAM997Fi2AlfN9+XYqjlsPeRP5n2SsfgfWcyGndc1h29FBk9ct3DERXM1q6FKv8Xly4Y42fmxdtKPLFx6gqCUzPdQpSp1GVRpWAV1xE3O7VrP4XNBGFjqabvIfPYsZNOm7RzevYNLDzLb/5Mfnccvrh41qhkR7nuAHWsPE5j4+2dOj7uLq/M2tsyfxt6Lz/ltb1anh3Lj+A72rF/BrrUnia/WhDIvCT2K5NsXuaNfEUP/JcwZN47tJx+RFHsf1z1LWTJpDbcSlPeOxXvDDI75/HniVGUWa2U268kLl2lnt1ZmuZalL3KGPLrQo9AztNSGHoWR1ctDj+LPd8SaYKM5B2Xn0CP+KssGH0XevHkZ89NPbN+1A9dTx/i8Xw9u++X8vvnY6GjmTBzLhG++5PPPPmXr9m2ULFVSVytysocPMpeaWLFilfak/P0vU7H8x2VGzMhv94xTG45z5foTzAvFcXLyzxy9m6QJRBe5fe0UJ1weaMfLqDOCOLtqHjfDM08EKQEuXH+iR0qKFdUbF+Du1u9Zsf2RNpCkPHbhZnQtqlc3wci2LA7hhzl/H/IZQvzVhazzKEGvAV2wC/Qh3EgJGJpQ5eJKWvUGmHiu5pCHDxfXLsTlduagoISAA8wfuxm9Gr3pXDWKvcv28VyTl9Jifdjyw1ium7Wm24f1iLx0i3INM9e3+2cZBLi7EaYJfmqrulQv8JBtP//MucgS1KxlxM0j+/ELUH5rA/RTffFwe5z5tP9HmdVamd1ameW6T+/e2lmvZekLIXK2LB18flO6dGl27NrJ0E8GM/arYcyfPIH4HNg3r/Q6Ht23h4+7tsPazISTp0/RtVs3Xa3IyZST7dzZc+jdq3fmUhO7nF9xqQkVET7XiC7SlC59u9CwdTNKmj8n5JkBxeo0xTQ2lLK166BEndTQc1y+X4Hq9fJpn/fc3R1VkxF88VFrajb7kEblUnke8FgTKZQ6NxIrN6GcmVrbwnPzxnPK6wKJKj6B4Fse3InOS5Vug7QLAatVwVxyC8TRJpxA0+707+iEvlE5SpUyRpVyjQ2jl2DZczT1HJ9x0vkKRZs1xZ7HHPj5G+5W/IH+jW3RSwsiIqEaNeq/fII4teo5l73CaPHFL3RrWY/GfdpRJOMxz56mY1KwBqUckkhIVFqizCheqT3NWpbNfOLfUK7wf1v64t6jQNq2aq2dBVsIkTNli+Dzm+49e2jCwGnyGunzUZe2HD+wT1eT/T28e4cRH/Xj6J7trNuwgYmTJmFh+fZWbBdZx+Gjx6lepSp+t+9qT77KSfjVJ6CMx8fdn8pdelHUWE167HNNeChAgcKGqNKucOVaAao2UCbLTOXOvt0EFWtMJQeluyqSK54BVGreBO2sUqoQIqKNKFi8OPqausvu9yjboIEmNihBx52r/qU0gUlZcBcsGgylY/4TLPhlL3HFy+NkCGkRF7l80wiL4o1p3cCWcA83ois0ory5mpCTKzkZXpI8TzazdPISwurM4adhlYi5sIhd/nXp3qcMmk9L6LnDPCzSmMq2v3ePvUhapCs3AqpTp6ES4iA9PJQEwyIULmqInoE1lhbJJMdrPnuKP1eCy1L3FcYA2do7MGHOQr79ZRqfD/uMD/r209UIIXKSbBV8FJZWlkyeOkV7V9PB7Zv5elB/Ht2/q6vNfpISElj663S+HfIRfTTBTlnRvmKlirpakZMpgyjnzFvA5AkTqFO/gfZ7/PDev/suZyRd4tqNItRoXEizM2vCw8XzhJfvRN3i+iT4XeSeWT2qaMJAYuB5jl98QvEGjcmvyQCqeA98bpWjWt3McJ2sqb8RXpemrZ00Wcqda/4lqV7fXht0Yi5fINCxQWbLTmoqKuMy9Js2jgK+s9l+Mlr7/EjP8zxx6ETv7uUwIoHr7n6Uqt8Qc/0U7ly+gWX1NrTrPJQRU+fw5YCaWOonce3kOYyrN6WChRpV0nX2rnehcP0m2L5C5ov2diW0TCMqWCpjgTIIdHEjvWZXahXSHNL0rDE3SyQxMR7/Ezcp3KK2NsC9itTUFPyuXSVPnjw0btJYVyqEyEmyXfD5TeUqVdh/wJluXToxcvAAls+ZSVJioq42ezh34igDO7clLT6G46dO0P/DD97wXTsiqwoNC2PAwEF4enjgfPgQGzeu55eJE1kweTy/fDuC8NAQ3SP/WYKvC/fz1adqYQMyYjzZuTeBHt8NoIBBOo88LmFSpT4F4i7jdjOIxAg7Ktd2IC5WReyVizwp3JBKtkrrTxjn1xyn0NAfaVJQjxhNXYBDfUobPidGlYK/22Uc6tQh4/ETHu7fiFe0HiYFO9C2sRGRwbGa2BGPj8s1SrbvSWlTtSaMeXP1RiEq1zQgOlqNiYkRyTGJGFmYaIJUOs8uuRKQkEx0ZDzGymD9jBDOrVzPjYQSmrBlTuD98L+uf/cnSdxwv0axeo2w0hzBUsNOsOuEBR982xM7Jffom2FuribQfQ+hxTpQ3vrV9qlL7q7aGyme3Lul2R9PaufIEkLkPNk2+Cj09fUZ+NFHnDh5gsSocAZ1accFTYDI6p4FBjB62GC2rlzK4iWLmD13Dra2trpakdO5unvSpWNnqlStyo7tWynomF9b3qxFc+0Jt3zpEnzSoxM7N6wlI/2fpvFL5767B0l54YnHIbYtPU25H1bQo4pyT4uKpIR4nrqvYf3RNCqVTyEoUo+Ihw9JzaMmNl6FhXkcN07vYeP0XwmsNp3vBihdTuk8velPQloQtx+lYqp+xq2boSQ+v0t8Hlse+u3Eedl+Lrvuwj2kCe3bFtbkkEt4X7WlRuOS2gNKapA/gTGa1/G5T3rePFTpOYgC9xfww/AfmDttLleSS1DEzIKK9avx/Mh4vh2xhMQGLSmQFMP1Y+dJtbHVtjS9iDojisQMe/Rjr3Nu33KWzLtEvYmLaf+/WXX1MbNyIn/lljSp8vK2HiVkKmFTGzo14XPFqpUULFhQVytykrQIf846b+fE1RjNHvK7F5WLnCnLzuPzOpTFCMePG49DwUJ88/NEChYuoqvJGlJTUtiyejkHdmzl8y8+5+NPPsHQ8GXTtImcQpmOYcGipezYsokZs+fSsnkTXc1fPdIElIkTJhISGsaoCZOpXL2mruZ36oz7rB7wCerPnOlVXh+r/NZ/mvRPnRpBSIQJDgXMNVEgkciQNKzzW/3vaic9IZigEBV2RQqS9w9PVGnKw5JsyG+XORdPwvMnpNkWxto4ndjIBPKYJBAUlI5d0SKY/910PaoYnt6Pw66M0/9uK05PCOF5hCGORWz5fdL/JMICwzEtUFjzOiman0MxcypM3lca3pRBfEgAURn5KVRQ+f1+lxrmwYkLhjTrURuLf7i0U7oa927ZqN0nP/zwA7786ittF5fIGl53Hp9/FsvOL3vzfMAhRjb445f3ReU5g8zj82c5KvgolBWrlZ1l9apVdP/gIz4YOgxjYxNd7fvj5XKBhdMmUalSRcZPnICjo6OuRuQGYRERjPxmlPburUWLF1GowKv9/Q8fOsT0qdOo1aAxn3//I1bWmYN5FUkBK/h20G0GH11IHbMctRuTHLCPZQtPEfmXJQL0sKn5KV8Pqv7/ZnbOIOD4TPbcdKRk0Qo07V4fm38IUL7XrrBgykQc7O2YNHkSxUuU0NWIrOJtBB9V8nl+6nOcHjtnUvcPU6K9qDynkODzZzku+PwmKCiIyb9M4vadO4wcN4naDRrpat6tsODnLJoxhUf37mgPsE2aNtXViNzC3cub774ZSaeuXflx9Hf/upUvPj6e+XPncfDAQYZ8PYpOvfqSHnMXrzMXuBtsQJEqDandsJx2vEvupSL06n4uRVaheavSL5wHKCY6ihVzZnHZ3YWfx42lU+fOuhqR1fzb4KNWxXDr/Cl8Q62wMw8gtegg2ldWWm9UhPuf5oJvCBGPLnAupCdr57fXfEf+Wr5mdnVu7t3GsbCqdHTy5FxyH0b1K8pTz+NcuR/AM1VDPh5QneRruzl404B8ehkUadGbWgVi8Nq9i/v6tuirHPmg7/s537yIBJ8/y7GHSqWPXumrf50Bo2+CMjZj+7rVDO3VhaoVy3P85AkJPbmM0rW1cPEyRg4fzuRp0xn704+v1bVpbm6ubSXctGUTpw/uY/iHvQl4nkGjnsP4ZPgQWjXO7aFHoY9DjZ50fEHoUa7vDu3ewaDO7bC3tuDkmdMSenIQtSqUU3Mnc4FmdO+UwM7xRwjPo+xr6dw7PIEZ+w1p3rsPjmF3KNFEmY/q78vNDO2xiPLA96YnJ92DiU9PxHPld2x+WJH2HR3x27Cf20l32DTXizK9ulNVP5Y4c32S7qxntVcRevSoB7GRmR9KZFk5/nD5xwGjyqrmLx8w+t9dv3KJIb0643fJgz379/HNqJHaRVhF7hEeGcmgjz/h/Nkz7DtwgNYtm+lqXl/5ChXYvXcPH/Tvyw+fDWbR9MkkxMfpasWL3Lvlrw2LSmhUwqMSIpUwKXIKFQ93j2Vnal8Gt7AjIyiAqIINqVNcE0jureWX5YZ8OLIF+VR3uPmwLA0aWr6wXK2KwMMjEH2b6gybuZhRZQ8y/0JlBnRMY9/0/dgOHkQ103zkN/Ni+8Y7FOzal3oWYJivIHhvZN8tW7r0ban7XCKryhXXicqAxW+//1570vDxcOHT3l21ffxvWnRkBNN/Gs20H7/lW03Y2bBpI8WKFdPVitzC0/syXTp2onSZsuzatQOnQm/uDiFluoO+/fpx4vQp9NNTtC0Yp48c0tWKP1JCoRIOlZCohEVl/1fCo8hZVOnX2bE5njYDapGHFG4cOI66dhOKG6bgsWkrhi36UNVMczFyYRMupg2pZZf6gnI9VLEuuF23oEnXVtjpp+C17wh6BY3wPORP6c9XMW1gaYz1Hek94RvStn7HhlvG5NWcRY0dezPmG3M2jF7II6NXnTVKvC+5qoFcGcC4actmRowYzuTvvmbWuB+JifrvzZJKl4bzjq0M6tKeQg622qUm2nfooKsVuYXyPVi8dAUjvviciZOnMGHcTxgZ/X4P05uUL18+ZsyaybIVy9m1fhXfDhnI40cPdbVCCYNKKFTCoRISlbAoc2TlTOkR17gVV5JSjvpE+25l+f5oqtcrRkJ0GHfvh+NQ2ImMsPOsW+OOU+NG6IcHcOdvyg0iY4j0ukhAqd50rZk5Nig2JgHHCm3pO6AHtQvGEhT8DPcL/hgU7snojyzwvniPpGBX3G+qKNVjAt2sXfG695cR+SKLyZUjA5S+faWP397aUhtWlL7/1x3jfcffjy8/6MWFY4fYtmObdsCkmZkk/twmIiqKwZ8M5fSpk9qurbat301zd/Ua1Tl4+BDtWrdixMC+rF4wl5RcvMimEv6UEKiEQSUUKuFQCYki5zK0KEEB1Unm/DiVLb5gY5yX6Mf3Sc5rT7kKDrisGsnkdcHYF81LzH0X7sQ5Uv5vym/H6HHd5RqlW7WloPaOQBPqa8Lz7XUjmTBzAeudA1CZ3uLgkrU4XzjPuXv5adG8NCk3D7Ny7W4unj/BE9sONCj9SvMxiPcox97V9apu+ftr5/5Jy1AxavxkSpd/tabw+Lg41iycy8VTxxn94w/07NVLrihzqUtXrjFyxFe0atuesT/9gLHx+5kHJCQkhKmTp+Djc52vf55Ag2YtdDU5nxL2Nq1YyuE9O/jyq+EM+vjjf7HemciK/s1dXakxYSQY25PPNIPo0EjyONhr55BSZ8QSFqYmn6MV6oggYvMWxM70xeV/JykqiHiD/NhbGqBWxRIXb6R5v1DU+ZywNzcgPTaWJKM0zfumY+OUH7Ms+LWTu7r+LFe2+PzR6wwYPXnImY86t8FYL0PbctSrd28JPbmQcs2wbOVqvhz2KWMn/MKkiePeW+hR5M+fn8VLlzBz1gxWzJ7B2BGfExIUpKvNuTwunNPO2h4R9Jgjx4/xyZAhEnpyGWMrJfQoPxlgrQs9Cj0DSxw04UbpcDa2/T3cvKj875jmK6gNPQo9fUssLU2xK1xUG3oUhpaWWJjaUrho1gw94q9yffBR/HHAqF5a8gsHjAY+uM83H3/Ivs3rWblqJdOmT8fKykpXK3KT6JgYzQl2GMePHGGPszMd2rXW1bx/DRs14tjJ49SqVoVhfbqyZfUK0tPSdLU5hxLqlHC3/Nfp2rCnhD4l/AkhxD+R4PMHyliAmb/OYunyZexat/J/A0aTk5JYOe9X7UrwnTu0w/ngAapVr657lshtLl29Rqf2HXEqXJg9e3ZRtLCTribrUFqevvp6BPs139W7169o1/665u2pq83elBCnhDkl1CnhTgl5StgTQohXIcHnb9SoWYODRw5rB6h+3q8H3ZrUJTYsmGMnTjBosIwdyK2Urq0Vq9bwxdChjBk3nimTJrzXrq1XUVgTztauX8ePP/7ArLE/MPXHb4kMD9fVZj9KeFNCnBLmlFCnhLus/jcQQmQtEnxeQAk3yliBIZ9/Qd2GjVmwaCH2Dva6WpHbKF1bQz/9jMMHD2q7tjp1aKuryR7atG2jHY9WzKkAg7t1YN/WTdrb77MLJawpoU0Jb0qIU8KcEuqEEOLfkuDzEhYWFuSzsdFtidzoyrXrdO7YGccCBdm7dzfFimTPE66pqSk/jhnDjl07cT9zQtuaecv3hq42a1LCmRLSlLCmhDYlvCkhTgghXpcEHyFeQOnaWr12PZ8N+YTRmsAwbcovOWLpkVKlS7F95w6GDhnMuBGfMXfSOOJiYnS1WYcSypRwpoQ0JawpoU0Jb0K8uiQCvA+xa8cFgmReQaEjwUeIvxEbG8uwz7/Eed8+dmn+69Ip583E3b1HD06dOY2FiREfdWnLsf17dTXvlxLClDCmhDIlnCkhTQlrQvx7puRLcmPzySDyyIwjQkeCjxD/j88NPzp17IydnZ22a6tEsaK6mpzHwtKSSVMms279Og7v3MqIj/rx6N5dXe27p4QvJYSZGxty8vRpbTgT4vWl4u9xg+KNm2AtZzuhI18FIXSUrq216zcxZNAgRn3/PTOmTdEucJsbVKpcmX0H9tOjWxdGfjKAZbNnkpSYqKt9+x7dv6sNXUr4UkLY5KlTsLSy1NUK8c/SIm7gvGoeO097sHP+DNadeorSs6VOf4CrlwX1mtjy6PwG1u7yIVY3pl8Vf5szmqC9dcVyTtxSvusqIu4eZskvS3EPjcX30CLmr/UgUvd4depT3A/tY/Oi2ey+nPW6hsWrk+AjhEZsXBxffDmCPbt2snPvHrp37ayryT309fUZMHAgJ06eIDkmQjsb8oWTx3W1b4cSrpSQNWrwAG3oUsKXEsKE+DcMrS14fHInbnfUVGqgx4FJS7maAimPz3FNVQPL23u4FhbIkTVHeJKuCUrh55jx3Wao3Z3ePc3ZO3615lX0MTcLwcs7jGDvQzzQT8Zz63Eepykh6QrLRy8mvFwnWha4zc791zPfWGRLEnxErnfDz58unTpjaWXFfs0VYKkSxXU1uZOtnR1z589j/oJ5bFy2kB8+/4RnjwN1tW+OEqqUcKWErOOasKWELiV8CfFvpUV6cD26JQM+bkDZMk5YJSWQpFLx7KILkRb65C3di2aW0ehXrElx40QuLpxKcN3Paeakj76hASmBDzSvoiJE8/hQ67zYlu9Nc+to0stWpbhJEm4Lx3Gz4mc0zNjPvH0mfDiofuYbi2xJjjIi11K6tjZs2sJgzQl3xKhR/DpzWq7p2noVderW5cixozRt2IAvP+jF+qWLSE3VXEb/R0qIUsKUEqqUcKWELCVsCfG6ojxcSW7QiWpmEHPFh6jKdSlrFIHrhXuUbtWHpmX08HHxo2yT+uRJ8eGMqy0NWxZCmYo2ytubp4VKa36KwfW8P2Xb9KNRSTXXTl2iWKNGmKV4cfCYGhtDD075F2LEyiV0L6Os8iWyKwk+IleKi49n+IiRbN+yhe27d9GzW1ddjfgjQ0NDhn3+mXYm82cP7mjn0/F2c9HV/jtKaFLCkxKilDClhColXAnx3yRxyfUhFRtVxyjjCQd2BdD+827YJbjgEdCYPj2Kopfqi/s1J+rUMiGVdDIM8uPooI9aFczRPf40HdqPjFhXPO43oGf3ItrHn/ewpXYdc9JUMcTGW1Ot7Qf069EI27hnRMit8dmaBB+R6/j536JLpy7aOWGcDzpTplRJXY14kYIFC7J85Qom/fILC6dOZOKorwgLCdbVvpwSlpTQpIQnJUQpYUoJVUL8V6oUHzwu66GO82D/sg2k91rEZ/XMiHS/QHCVVtSwhLQwH25F6RF2J5A0o1p07qjG88A5Dq/dQGybhYzuZE+M1zmelGtBDStNSA+5gn+kEfHBIahMGtChzXNWjPyJ2fNXcOKRGgtZtShb01Mr7f3ihdZv3Iy/5kQ5e9Z0XYnIrpSv+pZtO1gwZw5jxo2jd8/uuhrxb6Qkp7Bs2VK2bt7CB0M/p9eAQRi8IMQo4WjJzKncv+3PpEmTaNq8ma5GiH928cIF1q1Zy4bNm3Qlfy/OZwZDFhVh7qw22NjYY/Y3oUStiiXoaQr2RezJXNktg7iwSPTy2WP+t1/dFOJiVFhY/TZhZgqRQdGY5M//t6+f1f3w/ffUqVOXXn1660pyN2nxEblCfEICI775ls0bNmi7tiT0vD6TPCaM+vZb9uzbi4+HC5/27orv1Su62kwZ6ens3LCWoT07U7FcaU6cPCmhR7xx6QnPuLj3DHpFCpHH7O9Dj0JP35JC/ws9CgMs7F8UehQmfwg9ChNsCmbP0CP+SoKPyPFu3rqt7doyNjaSrq03qFjx4mzaspmvv/6KyaO/Yda4H4mJitSGICUMKaFICUdKSFLCkhBvnNqYqsPWM2dIKaTjVLwqCT4ix1K6trZu38lHH3zIZ19+ybw5v5JX1np64zp26sTJ06dwyGdFj+aNmPz919owpIQiJRwJ8bYYmtvjVLgwhQs7kS+vrlCIl5DgI3KkhMREvhn1PevXrmXrzh307d1TVyPeBnNzc8ZNGM+Zc2c4dfaMNgwJIURWJMFH5Dj+d+7SpXPm7ekHDjpTrowyR4d4Fwo5OWFmZqbbEkKIrEeCj8hRduzaw8B+/Rny6acsWjAXs7zS/i2EEOJ3EnxEjpCYlMSo70azesUKNm3fxgf9+uhqhBBCiN/JPD4vIfP4ZH137t3nqy++pGz5CsycOQ1z6WoRIttT5vEZ/d33zJg1U1ciXtesGTP4dNhnMo+PjgSfl5Dgk7Xt3rufmVOnMvL70Qz4oC96enq6GiFEdnbT76bmuDtLZvh+A9LT0/n0s2E0bNRIV5K7SfB5CQk+WVNScjLjxv/C1UveLF62lEoVyutqhBDi3erTtz9fDh9OsyYSLLIDGeMjsp279x/QrUs3EhMTOXj4oIQeIYQQr0yCj8hW9jofoH/vPnwwcCDLlizEwtxcVyOEEEK8nAQfkS0kJyfzw5ixLJ4/n/WbNzNo4IcynkcIIcS/JsFHZHn3Hz6iW7cexMbEcPDwIapUqqCrEUIIIf4dCT4iS3M+eJh+vXrRp19/li9bjKWFha5GCCGE+Pck+IgsSenaGvPzOObPmcOaDRv55OOB0rUlhBDiP3snt7MHBgYSFRmp28peDh09RsCjAEYM/0JX8v6VLVcO0xy8yvjDgEC++nI4hQoXZu7sWVhaWupqhBAi65Hb2bOXdxJ8Rn3zDUcOH6V4WRmb8V/d97/BgcOHqFSpkq4kZzmo+Z5MnjCez78awZDBg6SVRwiR5UnwyV7eSfD5buQonKo1oEnHbroS8bp+HNCVBXN/zXHBJyUlhUlTpuNy/hwLlyyhRrUquhohhMjaJPhkLzLGR7x3AYGP6dmzNyEhwRw+ckhCjxBCiLdGgo94rw4fPUGv7t3p3LUra1atwMrKSlcjhBBCvHnS1fVaVKhUBujrv/tlznJKV1dqaipTps3k3OlTzF+8iIrlyrJl0yZdbc5TyMmJjp066baEEDmJdHVlLzk6+KTF3ObcsnGcierLuJl9sPivQUUVxS3nX9mwPpwuK1fRsOC7H3ibE4JP4JOnjBj+FbZ29sydNxsba2tCQkJoULcenw4bpntUznHt6lVNSNZn+66duhIhRE4iwSd7yeEtPklcnNyGq8W38c3AIujx33/VsONfMmlHJcavHU5+A2nx+beOHj/FxLE/MXjYZ3wxbOj/7tpSgk/XTp3xvOSt3c5JXF1cWLViJZu2btGVCCFyEgk+2UuOHuOjSr3Bzet2VKhb8I2EHiVI3b50nQK1GmJnoCsSryQtLY2Jk6YyffIklq1azZeffSq3qgshhHjncnTwSbp3kUf6FdG7vZRVk8dz6Mwj0jQRKFMGYTeOcGbfZpzX7eNx7O/BSJ0Rys2Tuzi1ayWHD94gSZX5HFWaH/4+eShXrwLq2Nu4bF3Ink17uPM0WVsv/t6Tp8/o1bsvAQGPOHj0MLVrVtfVCCGEEO9WDg4+GTzzdCdSnQiWdano+AjnX8bhHpihqYvHb9u37LiYj3rdBlDX4RSr557KfFbCdZzHT+ShVWta9uqFgcto9p6P0tYlP3LjQXJtKlQ0JP6pH0FxBanduQdlnfJo68VfnTh1hh5du9K6TVvWr12tHc8jhBBCvC85NvioVc+5cSmMhp9OoHWzutTu0Y6CqseEBGUQ7T2X9c72dBzSEDN9Pczs7Yi94al5VgKXl47mhs1g2ta1QV/fgny2Kdy9cltTl0GItxeqyvUwubYVz2eV6f55H4rmkxkB/o7StTV56gwmTRjPkhUr+erLz7QDfIUQQoj3KceeidKi3Lj9uBrV6uXTbqeHh5FoUBTHwjF47DqIbfNuFNMud6UiJvARSSZmpEcd58wJE+p0rIkxak14iiQoMAKTvHk1P0dx89JtDDK82DDzBOYVSmkfI/7q6bMg+vTpx727dzh45DB1a9fU1QghhBDvV44NPjGXXYkq1ZCSFspWBk/dXVHV6ERF+wCePDKlROUyml9eCTdhXHPzx6l+c5IDbxGapzIlShhqXyM14hy+dwpRpXF5VIle+N8pQfMhP9Km9lMunQnUPFsG5/5/p86c03ZtNW/Zko0b1mFnY6OryepUhN/ay4/dGjJmZ5hmSwghRE6UQ4NPEre8rlO4diMsNL9havhJjp61oNtXPbExtMbC2hxT88zQEuO7Ac+QzvQaWB1DKxsszMzJo/1XScB/+y5o/SPNKxkTf92V544tqFYqH5XbNOLp6UM8Tw3h1qU7fxgwnXulp6czdfosJowdy4KlS/n6qy+zWdeWPjbFLEkNLUT1erY594pACCFyuRx5fFdnRJGcYYde3HXcDy5n0+JL1PppIU1KGaNnUIIm/Wtx//AePI6v5cAJCwbMH0cFGz1MivagRbVHnD9wgvNbFuKXdyRff98Cc/0UHly6in2tRtgbgkWNnlRM3c7aWcfRL1oGo1ze5fXseTB9+/bnlr8/B48cokHdOrqa7CXO5wK3bBtQq5DEHiGEyKly8ASGGSSEBhCryk9+Rwttt9YfpcUHE5tmg20+Y13Jb9KJDw0Fq0KYm7z4nyY9Loo0UxtMDd9t6MlqExieOXeRn0Z/T/+BH/HNiNdv5XnRBIbJz7zYu+cEQXbd+Lq3HZ7bNnFFrxWfDqyFhX4s1w+s50J8Uz79sBqmmr954IVteKpb0LdZfgI8trHL+Q4lPviF9lZnWLn0OHqNv+HrLvm5c3gFG8+m0X7UaJoVVj5zOp6zOvBr5Mf0cfTDJ9SBtkO/pHnJzO9Heuwdzp+8zP0HD8lTewgDWzgSefs0hw6eJbLoR7TPs4+dj1vyw4j6mGuf8TuZwFCInE0mMMxecvClrQFmDiUp4Gj+l9CjMDJ3/JvQozDE3KHgP4YehaFFvnceerISpWtrxqzZjBvzI/MXL2bUN1+9la4tkwKFiffcw3NVGidW7+J26G32rz/Cg7QU7rudx+/ySfade0Ca5rHqjGccXjqHq2HKqHVDHJ2SuHQ8FL30E2w9EY95mjdHT1/n6v61eKbYkui9Exf/dO37qDMe4uYWiCoxBbu6zbEJWM/PP23kaQbEP3Rm4uhNULsP/WpEsmnhXp5k6GNXugwJ3qd58ugEKzecwPt2KGkyOEgIIbI0adMX/1pQcAj9+w/gxvXrHDh8kIb16+pq3ry0yIt43iuLddIDin04go7F9DEqUgonIxNK1m+GaWwolerVxUzz2NSQs7jdqUjdhsqdfCpCXV0JKpmfxIAC9B3aDJPYOGz0H/PUaRADW+QlKakcFSsZad8nNegil0NaMWLyYFo1aEnf9uVJevyIpwnXWPz1Iiz6/EjzAk85sOcqJVo1o6CB5rNFuOD90JYUVXF+2nmGQ4u6IrMbCJH7KBeCIvuQw7T4V85ddKF75y7Ua1CfLZs34mBvr6t5OyJdz+KnZ06lpt2oYp2Ax3kfyjRqpA0Y6tQruF8pSO3GBTAglZu7dhFQsgm18yuDzePwuHCNPJZlady5Jubxbnhc1cO2Qms61rYkyv08D4o0pKaj8lhNSHJzJap6K2prZz9QERYaRd6iJTE6tZz9YaUwe7KRGeMW86z+XOYMr4zSVhjpfhG/lLzU79yRAsbGGMkyJkLkKtHR0fz04xiuX7nMskWLCAoK0tWIrEyCj3glGRkZzJo9j5++H82cBQv4btQ3GBi87TN9PJ7nLlGs0+d0KmtMhia8XLxciLqNnTRBBxJunOemWX1qFzcgMeAce88+plSjJtrWmIxET9yvOdDls94U06SUmEsXNI/twKAPy2tCSxKXL1yiYP1GOGl/Bc37uNykQqOG2vE56oxHXHQLp17XFoRe8sGqZlt6dB/Gz7/O4+ePa2Gt3WsS8bp4Get6/elYMbPVSAiROyhDY3fu2EGblq1QG5tyyNWbavUb0qVjJ1YuX6GdwFVkXRJ8xEuFhITS/4MBXNVc1Rw4dJDGDevrat4uVZIXLpcK0K5nLW0LS4zXafysGlDVMpxoVTr3XC9hWK0+RWMvc/rGM+IjHKhZz4GYGBXx1zShyKIlrWoqy4mk4HPBC4eW3ahupnndFB9cvfJQvaY5T56la9/H3ae4JlDZaXYIFU9PLMXNbDhf9SqEaR4jkmISMbIw0dSl89jThXsJymtcwd3bgGa92mMne5EQucad27fp06s323bsYvaqDYwYMw6rfDYM+vwrVuzYh4uHJ506dMTby0v3DJHVvJO7uj7o248HgU9wKlFKVyJel4/7RfYfPECVKlV0JW/XRVd3fvj2W3r27cu3I79+a608f3dXV4z7WHqOy8P84+OpbJzOlXkdGHa8OhNmfEfHmtZ4TGnFiONF6D1kOB81vcbXHfZScex0hverzsM57ZidMJld0xphmHqVqR2HY/LzOX5snofU0C0MabUa20+n8POXTbAK3seYL45Q8pMe2D3zxCekPB99248K1vrE31rDsI+WEF+pFVUL21G+xUD6NitE4pWp9Pw8lLFnFtHUUveBX0Du6hIi+0tISGDBvPkccHbmkxGj6NSrL3p6fz+H28XTJ1kycyr16tXl53FjsbW11dWIrOCdBJ8+PXsRHx9Pk6ZNdSXida1etYqLbq4UKlRIV/J2KF1b8xcuZvf27cyaO/et36b5otvZ/0idEk1MmiXW5plNLOrUcILC8+BY0BwDEgkLTsPG0UrbDfYyymBEQ8PMGboV6ox4nj8KQd+hKI6Wv5cr0hNCeBpuQMGidtqWp39Lgo8Q2duxo0eZMnkKteo35PPvftS28LxMUmIiG5Yt4sSB/Yz8diT9P/hA1ivMIt7ZPD6NmjSme48euhLxusqULMXN27cwMnp740pCw8L45ptRZKRnsGjxQhzzO+hq3p5XCT7ZlQQfIbKnwMBAJo6fQNDzYEaNn0yVmrV0Na/u0b27zJsyAXV6GlOnTaNipYq6GvG+SPwUf+Lq7qkJIF2oWq0627ZtfiehRwghspKUlBQWzl9Az27dqVynAWv2HHyt0KMoXroMizZup2PvDxj88cf8MnEicXFxulrxPkjwEVoqlYp5Cxbz7ddfM23WLMb88N2fuoKEECI3UFpo27dpxw3/29rA02/wUAz+47FQGQvUvntPNh44TkxiqvZusIMHDuhqxbsmwUcQFhHBwI8+xs3Vhf2HDtKiWRNdjRBC5A5Kd/tXXw5n7M/jGP7TeCYvWIq9YwFd7ZthaW3N979MZfLCZSxfvpIBH3zIwwcPdLXiXZHgk8u5eXrRpWNnKlaqxM4d2yhUwFFXI4QQOZ9yI8e6tWvp2K49DkWKs+HAMeo1frs34lSoUo2Vu5yp07QlvXv1Zu7sOSQnJ+tqxdsmwSeXUrq2FixayqivvmLytOn8POYH6doSQuQqV69c1U46ePL0WZZs2cWQEaMwNjHR1b5dytQgPQcMYv3+I9x9GEC71m04f/acrla8TVnsri4VwX5HOHEhkHjMKVqjOS3rF0U/zIdTxy8RQkFqNa9H3shwSlcpS2rIVY4e9+RZbIbmNzHCqlB1WrarSwHTDIKun+Cc50PSi7Tlg/alMdK8dtD1w5x0e0aeoo3o17Gy7j2zlzdxV1d4ZCQjvxlFYkICi5csplDBN9uc+zqUZuYGdevRqVMnXcnbk5SUhKmpspDpu+Hv74+dnR3bd+3UlQgh3idlqYlZM2Zy/tx5vvzhJ1q0f/vHnZe57OHGgqkTKVumDBN+mUjBggV1NeJNy3K3s6vTbzKzc1cu197ElskN0Hu4ha9HnKPxuAk0t3/MgV/HcNJuBgemK+NQ0rk0pwNfe/Vky4rW+C/4kkVPBnJqw4eaulRcp7Vm+OEGrD4zgzp5lde+zeIfDtFyxmgqvptQ/8b91+Dj6X2Zb7/5mvadumgHML/N2+L/jZTkFE6dPKnbenvi4+IYP348w4YNo3yFCrrSt8/O3p569evptoQQ74Nyutu9axdzfp2tDTufjBiJmbmFrvb9S01NYfva1ezbupFPNceoT4YOyTLH6JwkywWf1NDNDGmxiYabj/J5dT2uzuvE19cGcmjjh9qFKZMDNrPLrysfdbJErQpm7UctcKvjzJqvyxB3ahTtflDjeW2Btm7LjO/Zs/MedeaeZWxrM9Ij9rJibwW+GFb+lSa5y4peN/goXVtLl69k8/p1TJ05izatWuhqcpcnT57QrHET5i2YT9du3XSlQoicTllqYtzYcaSkpTNqwmTKlM+68+kEPXnMgmm/EB78nKnTplK7Th1djXgTstwYH2XF67v56lO3gnJiN6RQhXJkeK9l2bFnZGhKjPO3o0NjZSlJyIhxweNGQeo0Ko5eSgCH93pTtGsvXZ0HcfajGNAsjYuHLxCvKYvyDsSiZqlsG3peV0RUFIM/GcqZU6fZ6+yca0OPQmk+/uijj+RAIkQuoSw1MW3KVAZ8MICWnbqzbNueLB16FAULF+HXFesYNHwk33w9ku+//Y6IiAhdrfivsljwUVa8voJt3caU13VFObSZyIxh+dj/bX/G77hHuqk9dlaZHzva8yK+epY8PT2RjzsMwqXULJaNy1xaIdr7CZa1qtCic1MSXI7gFZWIzx19KuWylbS9L2cO3itZqhS7d++gsNPbXeoiq1MGFE6cPEn6z4XIBY4fO6a50GtNcEQUGw4cpXOffi9cXysratq6LZsOHsfE0oZ2mp+3bdmq7a4T/02WCj7aFa+9VNRoXBdlTW2Fnn4+mn23mdU/l+LcL1+wwj1RV5PClYve2LX6gnE/TGXG99Xw37oBjxDlS5GC710DKlYwIl+jrtTP48Lx427cUVWk/G8vnMMpO8eyFasY/tkwxv8yiQnjfpa+YiFErqAsNTF40MfMnTefsbPmMWbar1jbZM+FQk3NzPhy9Bjmrd3E7r376NGtOzf9bupqxevIUsEnwe8CV2KrU7++MtgsgwcuFwhMV2ryUm3gLL5sFMTBHedRZjtQpd7A3TOF6k3qYqr5NWxKl8Im8R4Pn6Zr6ny5S1nKaUKOvml9OrS25MzKJaSUrK15pZwvMjqawUM+5fjRo9qurXZtWulqhCLg0SO5ahIiB1KWmli0YKF2qYmKteqxds8hqtasravN3kqUKcvizTvp0Ks/n3z8MZNk6YvXloWCTzp3L1wksUIjatgqTZEJXDnkzO3IzBOUnr4RBgZ6WFjbaD900p1zeIdX04UkzWP3HiGoYDMaVjIi+a43FK2tCUQKE2p1aYdNmCWl6lppS3KyS1ev0aVDJ4oWLcqePbsoUthJVyMUEeHhtGrRkvPnZL4MIXKS35aa8PHzZ/XuA/T/5NP/vNREVqN003Xo0YsNB44TnZBC21atOXTgoK5WvKoscldXgib0rGfa6HncKfw5C+d/TW3H68wZNpe7ZpWo07A8hgFHOXK9NN8u+pGyMefYNGMMa64VoUvvGugH3SIgsTwf/zyKWnixccavPKoxiTFD6lJQk37U6TdYNNGbXpOHUiibj2x+0V1dyp9x5eq1rFmxnEnTZtCxfRtdjfgjuavr31O+W+np2qZXkQXp6+trx67lVsocYFMmTebGDV++HjuR+k2a6WpyvpvXrzF/8gTsbG2YPGUyxUuU0NWIf5Ilgo8yVfeJ48d1W5nUqkSSkk0xzZNKbFgESXoW2DpY8LqjVNJS0zAyznx2sWLFqFqtmvbn7Obvgk90TAzffTeakOBglixbSrEihXU14v9TbuufPetXPv5kMPnz59eVin9y5fJl+vTqnatPrlmVstxC4RKlOH/2lK4k91B+940bNrBsyVI69+nPwGFfYpInlwzi/APl32Hf1k1sXrWMDz/8gOFfjdD8O2TTierekSwRfGI0J+5fJkzQbb199Rs0oE/fvrqt7OX/B58r164zcsQImrZoyfixYzB5R9Oti9xDCT7jJ09nylqZeTqruX/zOmt/nczJo7mru+Pa1WuMGzsWcytrRo2fTOFixXU1uVd4aAhLZ03j7k1ffpk0iWYtmutqxP+X5SYwFP/st+CjrKu1Zt0GVi5dwsQpU+ncsb3uEUK8WRJ8sq7cFny0S03MnMm5s+f44vufaNWxs65G/OaSu6t26YtyZcvK0hcvkKXu6hKvJjYunmGff4nzvn3s0vwnoeffuX3rlrbLSwiRPSjX58pSE21atkJlYMKmQyck9LxA7QaNWO98lMKly2vncFu1YqWM0ft/JPhkM0WKF6dHt27Y2dmzb98eShQrqqsRryI8LIyO7TtorhjP6kqEEFmZstRE39592LR5KzNXrOXrnydkqfW1siJjYxM+/nKEdpbq867udOrQkUve3rpaIcEnm0lMSGTkd98zY9pkGc/zGpKSlVmgMpvMhXifpNXxnylLTUyfOo0P+39I8w5dtSfxshUq6WrfF5Xm76b78T3JSEki7RU/Q6EiRZm9ch0DPx+hXfpitObcERkZqavNvST4ZDPKALZOHdrptsS/8ejhQ376cYx2YPiSRYtxd3PT1Yg3SZX0iIsLPuKHz5fxLP3tLw+gTgnTHMzTdFtvg4qoe84s/bgZaw6Eoea//E4qIm9vZ9HApqzc/fw/vlbO9dtSE0FhEWw8eIwufftrb9v/N9SqaPwPjmNY6y+5EPbfhrKqVVH47hrD0FZDOf38rQ+L/VuqpNscmDuDHbun8cOwNTz9F71Xzdq21y59YWRuRdtWbdi+dVuunsQ1mwafBB54HmTnTndClJVLhfgHKckpzJszh149e1G7SQtOXvHjyx/H8cMPP/LNiK8JCw3TPVK8CfqmhTBNfYpZmdo4vvX541LxXtCTH0csI+ithSx9LAtbkB5ekNI1bTVR5b+cMDSvVciMxGA7Stcq8K9eS50UR0pGzg5Kjx8/zlxqYu58fp45l5+mz37tpSb09K0pYJFCUoEalLP5b/9uytJJ+fPGEGtXk4qO/+61kuLiNXH3v4rh/OyxPCw9hH69hzL489Y4/Mt9S1n6YvgPPzN3zUZ27t6rXfrC/6a/rjZ3ydLBJ/7GSr4evk639UdmWEedZsuFMPLK1CLiH5w/e462rVtz+0EA6/YdptfAj7Xz0TRo1kJzBXSCfI5OtG/bjo3rN2jnwxD/nSrNnxtXVVRoUBWD/xQSXoUx1T5ZyuhfPqLAWwxZCTddeGJTjzKO//2AE+fjRpBdfcoWefXXSov2YPP4xQS8zYat9+i3pSZ6dO1GhZp1WbPnINVq1dHVvq4UbrlfpkDdRtj/5z9bEr6ePhTSvFb+V34tFaGes5m9/Ar/dWhxnO9qtruVoXnL/BiYFKNKraKab/7rKVm2HEu27KR9r358/NFHTP7ll1y39EUWCz4qwrwXs9w5RJuQTTRJvVXrzIkG1aoYXJfM41SwciBN4brHTco2bqiJQEL8VVBQEJ8P+0w7n8XICVOYOGchdg5/nrBQmezs05HfsXjTdg4fO0G3Ll257uOjqxUvpyLSdxe7V23g9IGdXLj4QFuaHHCBu3F1qVjFiIibhzi06TBBSb9fJaszQrl5chendq3k8MEbJKmUugSeeO/n0OqVXPbz4fz6uRw8ekuzp+uhSgzk2pH17Ntwgrt+h9i7dBGXbidojgkR3D23gyO7zxCjZ6l5ZBrPr+1i19xpuN1MIznYncOLf+WCT+z/upRSw324uH0Fh/ed4UHAU0KDQklKe9kVfDqPPC5hWsYB33XjWTF9CT4Bqbo6ze+THs7ds9s4vO0wfpcOcfyYn+aTaF5TFc1N58Xs3bads/t34vtICdapPLx0BevqjXA0iOb+6XXsWrka10tPMp+j+TeNeXCOc3tXs3XeKvyD03h8ZgbTPv6Ms4+CCLwapH3PnMTN1ZUObdtzzfcmq3Yd4IMhwzB8Awsqq9JvcfmyIU52fqyd9CMLl54gKOX3v7Xyd/M/tZWdmw5xxfMgew/5af46Ssi8hrPmO7Zn524O7T5LkCa1KOs/Xruah8oNykPMHU5tWMD6tbu48ThzzCCqOO5e2Me+tbNZufoCYamPOTH7Y776ai2Pn97FP+hV2nwyCPY5zKGdm9i6ag/3Y5RzXSxXd09j8pj1PDWM47FvyBu5lFCWvujYozcbDh4nMi5Ju/TF4YOHdLU5XxYKPklc3vI1A4du49aTBzx5cpn9u04TZ1cSVdJ1Nozsw6gtfjx58Jz0VH/crzhQt1Hmul3q1Ke4H9rH5kWz2X05JvPlRK6k3Lap3L6p3Map3M6p3Nap3N75T4qUKMmC9VvoOfATPtOEpbE//6ydVFP8M1XaZfb86kaZ/oOo5RRA4FPlGjSDIHc3VFUaYOC9hrPe1/DatJjL9zKDQkbCdZzHT+ShVWta9uqFgcto9p6P0tSYYWf3DJetx/H1fUregnFcmPkzF++no5/XCbPgg5w4c4GApxZYJ5xi7fT16Onb4lQ4DM/99zG0V5p7DLEpkIjfscekpZ/h6MFbhN935tzp25pPBZFX5zNpyGwSyvWhjsNpZvfvx6JZWwnUnbteRJ0RgO+lx5rjUAo2NZpi9ngjq6ZvJjxDE8qS73BkygT8jVrSpqspF6ZP5MZTI5RGgXgfzcnTuzgd+nXB6sl1oo30NCfbB9y8mky5elXRS3zMo7uxODXqRcPaRTDSxLxHxyeyYXcCVboMonDcRo4cCaRw84+o7GhCw4+n0KZBgcwP9Qfm5ubaiUyz238XXdz4QrO/jfnxJ7744WemLlpO/jc450xKgAvXn+iRkmJF9cYFuLv1e1Zsf6S9qFYl3WHv+PFcNmpFt56mnJw0Ae8nyt8tlcvLJxJQbDDdOhXmyY0ADDRZKfmhK7eSa1O9shFxT3wJjCtI4+69qFIkj+b884jDU0ZzLr4WHQdUI3jbAtweO9Hsw2Y45GnGoF+GUa3gy0618VzbNIpV5/LRrPcAmjmcYs6Mk5pyS6r3/IzaTqY0GzKZzvUcdBH+zbCyzsfoydOZOG8xS5Yuo3/ffgQEBOhqc64stIKbKZWaVsF2e2E+/6wBRQwe4HzeDbPGP6BvWomGla04W1ATjBoWJO3ebnxN6jOggD6q+CusGLsLp6+m0DL5C77ef53etZroXlPkJpcvXWLc2HHYODhq7wBR7mj4N1p37kr9Zi1Ys3Cudr6QH8eMoUevnrpa8ReqeBIjbnLrejSV6vagmXVB1Kpgrns8wq5EGM9Nu9G57WF8d5alaHElFMVzeelobthM5ae6ykVLCvlsU/C4chta1CHqhg9xhZvRumdnCmqCkMfCk4QFZaAuEctd30CKN5xCi3aVSbA4zt5zT5UPQLSvD6nlW1NSe3eziggvNyKLFSQxwJ52Q+pw7oeVJBYvhr4qFNcN68motZCW1W1JuWKKoVEFuk35lnIW/3wNnRriwt2w5vRe+DHVrDMo8KgcZzcEEJEWht+sb3lYZhFfNXZEnXSVhHgHytctofnd1KQnJBB224OAmI5U6DiQWEcDUoLdNK9VnU4FL3F6fwJVPx5FgbzK+6uJ81vKyjUqBq3rSN7gXbhdL0St3kVJi9qH//0KtKxtnfmB/iA5MYHw50FMGDdOV5J9pKelcf/uHcbPmkf9pm96lmEVz93dUTUZwRcftcZMVY175ZZzNuAx6Spzzk79Br+yS5jQLD/qxCvExzlQtX4JTfBRkZgQym2vyyS2b0i7D22wN8jgoYcnaVX7Y3ZlM2cT6jFwRBky76lN4eqKbziaMYrZ7R15sm8ajwq24qMieoQddCWibHMqWr+8jSbKczYL9tjz045GWOirUee3J9bHU1PTVhPSPPG5XZrG46zfaOj5o0rVajD8x7GM/GQg+/bs4dvvv9fV5ExZqMVHRYiLK2k1GlFKc4xMi/DEN64udcoZaJu03d3Dqd6oguaqSMUzFw9M6jahkGESbgvHcbPiZzTM2M+8fSZ8OKi+7vVEbqHcnqncpvn1iG/46Iuvtbdv/tvQ8xtzCwtGjvuFGcvWsG7DRvr17sO9e/d0teKP9E0a0f7D/JydPo4rISUpUtKAtEgX/G4bY1G8MY3q2hLp7UZ8uUaUMNOc6KKOc+aECXU61sRYc6JXqyIJCozAJG9ezavFc9PLn/IdelBIs/+nxz0nKtERh0KGqBI8uHmnAg07VdBcqWWQEBKM2qFI5nM8/ShWp6HmZKF8ojj83K9ibF6GGu1rYZLoht/NklSsY4e+vjF5zU3Ja2mtObnFcP3oWfLUa0epl/aVa8KU5ndIqtSSstrcoSIqPApTpxKY3FzNYd+6dOxZSht0Yq+68CRvXcqXzRx9YVVvCE0dTrJu+j4Si1Ugv2EGkZc9CDVXc2nOBO4ZVsZR+dW1onDftJW0oo483D2TDWtuUX/CClpVMCbmsithRRtSxv6vh+s8ec3IY2HJkSOHst1/J04eZ+v27WxdtZQxXwzl+dMnut/qv1O+W1c8A6jUvAnmSoEqhIhoIwoWL07itZXs9KlPn76ltSfA2CsuPND83apq/q3RxJl6g4ZicGYcKw8EU6xcGfRUUVzzuo1hhheLJp/EvFIpXejRfE+jj7JrRwSO+Z+wS/M33XOrIWMWfUlx4zh83G9Qon4jrF96lo3g/NYD2LXqThltCNZ8xx4+IMEk88sZf82dx/Z1qFDgv48v+ztRERFM/2k0M8f+wNLly3J86FG89E/y7sTh4fKYqo2qawdtRbq7EFOtMWU0G6o4VzwDalC3uuZwqQlBbm7h1GhcAYMULw4eU2Nj6MEp/0KMWLmE7mX+e9+wyB6U2zGV2zKV2zONLay1t2s2bfNmbvUvW7ESy7fvpXG7TvTv04+ZM2aQmJioqxXKWJX0NBPK9J9Nz8o+7Fp2jETN9Wi09wWC7TvSoXM5TUhJwN/rJsXqNsBcc6RJDrxFaJ7KlCiR2dCcGnEO3zuFqNK4PBnJl/H3LUyl+oU0r5JBuNsFost2pGoxA82VryshhRpTXnPgV05o19zuUrZ1OzKSvPHzLUiFugU1z1GToQlIN67b0uSj3jgaq4m+dI5nDg0oqz1hWNHk2xnY+y9k48qVBDqO4ftfemJt8LKrcSWQ3aJE3fooy18q3V43vMOp3K45z0+ewKxuO4pqKtQZT7iw4zim1RtRRHNWVP9fe3cBFmXW/nH8SwtSUipid62t2N2ta3essa7dvbau3d3dYmOCQdiB3aIICNINw39mfPb97/uubqoMcH+ua691zj3DoDDP/OZ5zjl3Qjwqo4I0+3k8tvfmceSs5nJeFA+u3CNf/QG06+zMq3MnCFbm06vi7/Dovj5FarakZpcx9J/yMzVK2qj/XtE8vHITx3JVsfk673spyrmiM8dPnqCSczn6tmvJ5lXLSYj///lT/5Qq0pNbDwpRsoKl9nbsKzfuBFWgel0H7h5V/5wqNyC/qTp8q39uJ7eewLRMNfKZJGufO2P+nowcUwLvRfO5EqqnDt5e3HyQl0b9x9DK+Q0XXV+po8lHUXev8NygNNWbt6DziNmMmdiVQrbq3+CYq9y47Uipyjn+9E1WFf+c58/MKFCigPa+yar3eF+4T86qtdS34nnqfQ3LkhVxNPzzM0d/h2YfqUO7ttO9eUOcMtty6sxpGjRMH10AdCb4aE7neat/UUsXjiY8KUr9g39E0UoFiY9UEeZ9kbeFKpIzJpSESA+uvCpJ2SLJxKnCCI+0pmT9jrRvVQXbiLf/OZCItE2zDFOzHHPPvv0sWL+FH0eO1S7X/JI0+4a0aN+JTS4n8H0XqJ0AeMpVc91dxPnt48zpEPT0HXFuVo3koHfEJGnOuNwiV91W5FCHgaTYq9xTB5OCJQ0JC1VhaGWDRUZzMmiPOupQtHMP1B1NzWLGRGtWTWWqRCEnA5LCvTnmEkWjgZ2wN4jjqdd1HMpW077xf7i+iqtRnWn1fV6ifC7w2sKZ7AavCE3SI+KmG2/sGlP+O83n8WjuX76CfVlnDEM+qGNRPPd2LiAgexsatRtCpx8akEX76fqPaf4O931yqsOVnTaQ+but4n7GfrRsYsl7v2DMrK3RUx+HfPavxOupPgXK5eH9yw+8OryZO6FgkqURVSsZExoQQWLcde75ZKNUrQLYlWtC7uDjXH8Wz/ubnryLN8XYMI6YGENMjfVJTnynDVyxCXe5d0v9pljWkncvQ9V/j691sSPlaPbV6v/jjxw+eoSXD+7So2Ujrnn+uz22wq9fwDd7ZYqpQ4gmSLitO0m23qOp6hjJu7fBmFtnQl8Vzq3dKzj7WB04K+TG7+l9jm47po66+uSo35aSxgEEhycRqQ7er7PWxjm/NWUbVcHX9TC+8YHc9npIUgYTDGLDSDCwwEj9ex33zlsdkqKJ9rnIkwzlKGj5grehf/x7pmeQCatM5piZf/zZht3awNmAZnTvUUodzN5y82YcJauX4Et+pH90z4f+HVpz4cRRduzawdjx48n4hY+fukxngk98wDN8E2N5cScQVcJj7txTERP4mkh1yg14/oqEmNc88Ncj5sFNniQn4nv3LXomlWhU7x2rhoxl7sJVuL5IxiINfioS/0+z7FKz/FKzDFOzHHPp1t3kKVBQqX4dmWxtGTdrHmNmzuWXX+bSu2cvfH2/3Gn51CjmyR3O7l+Ox9WLuJ8NpEybxlglXOXuLRuKV86rPrCoPz2/e8DbiETe3X1KYkZ9THK2olbJF7i5uOK2bTE+ZkMYNKIW5voJvPDyJtYM/K4cwWXNWfIPWUndYqaoEh9y93oohsl+3HRdwxH3HPSY218drBIJ8LlHWKI//h8yYKkOSI88vMlUpjKZDdWfmhNf8vxhCInhrwlH/ak/KZgPMbbE+cxmVMNyDOw2kgv3opS/zeclhkaAjTnBPqc4vXEaLtfL0mdGN7IYWZLnu3w82DWQWaPn8DZbGRySjXh/7zYqG1N87+/l5LpD3PHcw63AKtSo60TsQ098zStSKKch+iblqVIrjiOzfuZufB4czUtSo20J7qzuybwpE9i84hT6OQpgGOtLUHACr7yuorLVrFz7sp/6dUk2JyfWrFvLxIkTWPDzeKaMGEzw+8CPxb8lSf2BWIWFeQR3zuxj88xfeFVyJsM7F1CHBysKlMyHz7YBjBwym+fZy5It2VD9u3SbRMs3+BzYyY7DXnjuO05MpS44OyXySBO8K1TV7kllXqYVZeJ3sGjaCfRyF8S6RHsalXjE8r59mP3zFLaejiN7fjNi3r4lNP4lN67Fksnyj8OqnkEe6nctyyOXvZw/uo5tJyzou2ISpdWhLSHEi0eh1ahU9j/XRP+VSPXxc+G0yYz9sTc9unVl9749FCj4dY+fukiHurPHExYSi3kmS+0Es7DAYEwc7D+eXo4PIyzWHGtLA3UCDic4xAg7O9OPDyOOD36hmGTOTMZ0EHp+7c6u+ZSU3miWW86cMYMKVWvQZ+hILNWftr81zYTMXZvWs3fzenr07MEPfftibPxxTkda9anu7AlhH0gwMybK1w8929zYWX3i91EVxrvnkdjkc8LkP2/YiUQGqt/MrLJhbvJxLDnpKTt790a/1wEaFDDAwkEzD+djLfbFcqYO8aPzxiFkNbAm02+eRxX9juBoO+ztPv1aiA8LIdnCBmMCcJsxnqgmi2lSyoy4kIdcWj2Ko0E9mDWvlfoY8yeHwKRIgnwD0LfLpc5Avz3IxPDhTQimWbJhaphA6Ft/TLJkx9QggciQKEyMowl4l4hNzhyYGf3+OTTHsqiojJirj2sfqYh+/4ooAyfsbX79O6mICgrC0CYzJvq//xpptTt7bGwsy5cuY8eOHXTp8yOtOnXV7r/1dyRG+eMXoMIuhyNm/7WMJ4Zg3xAyZHUko2Gi+meo/rlldcIsOZTwKDMMol8RlOiAU3arT67+SQgPId4sk/qxyoAqisDXQZg45sTq10OBKoLgYD1s7M3/8jm6hAh/QhIy4WDz6wwiFW8ODGVrxCBGd9N8mPh3XA8fZPWCX6hbty4jR4/CyspKqaQ/OhR8xF+RHoPPyxcvmDRxEu+Dghk6aSpFS5RSKinH3+8tS2dN4+3L50ydPo2KlSoplbTnU8HnS4p9tYbp/R7Qbt8iimf87eEoiadbOrL6UXemz2j0m/D09yQn3mdb77Fk6LOB7yvZaSer3tkwDm+rEfRuk5MXx2Zy0M3/919dz4wyXWZSs7juvtbSavD51fNnz7Sv/aDgD9rXvmb1UWoU+/IAKxaf5sPvpmKow1GZHxjUrdR/QpYq/habx7jy3YhqPNjxmuqD2pPd+J+/Tb969pQF0yYTHxOlfh1N57sSJZRK+iXBJ5VJT8FH02pi+fJlbN+2/R9/6vvaLp8/y5JZUylbpgzjJ0zA3sFeqaQdXzP4JIQ+4pb7BV4EGJCtaCVKVCyMufbMhoqQpxe45nGbcIMcFCxXjaIFNPNs/tnhKs7/Cu5HLxGqZ46pcQYcvqtPmRJZ1G82X/3w91Wl9eDzK83Z3hnTp1O+SnX6Dh+l3X8mrdL0GPM5c45g4zwUrVQS+394Qjk2JobNK5dy/OA+Bg8eRKcuXf52v7O0Sv4VhE5yP+/2sdXEk+faVhNtuvbQudCjUblmbTa7nMQqsyMNGzRgy6ZN0nX7bzCyLki55j/Qtk9PKlcupIQeDX0y5atB3a6Dad2pJcUK/LseWSZZylOv9zDa9upD0y5dqVAic6oPPelJk2ZNOXX2DLaWZnRv1oCj+3an2Sabmh5jxeu1okaNfx56Lp49Rbdm9YkIDuSk60m6dOsmoec35F9C6JR3797Rv28/Jv/888dWE/OX/K7VhK7JYGpKnyEjWLJpB0eOu9K8aTPu3L6tVIUQX4KFhQWT1MeFTVu24HpwLwM6t+XpwwdKVWho9kIa8+MPrF88n3nz57Nw0ULs7NPeWeh/Sy51pTJp9VKXptXExvUbWL1qFS07dqVj7z4YG/86yS91OXXkEKvmz9FOIhw1ejSWVh/3EkmtLrq707//AFr17K+MCF3h9+o5965fwdPjojKSPmjetnbv3MX8efOp3agJvQYNxSyjdqvCdEmz/9CODWs5sG0TvX7oTe8ffkiXC2D+Kgk+qUxaDD6aOSSaVhOZ7DMzZPzkf7zrsi6JDA9nrfpT16Wzp7ThJzW3vjh44CAjhg2jUhqewJ1avX79ClNTM06eTp/7S2l2bZ8zazYX3C/Qf+RYbQhKbzR7Hi2aPpn8+fLx85SfccyWTamIz5Hgk8qkpeCjOWjNmjGTy5c9GDBqHDXqp71dQx/63GXB1IlYZDRj2ozp5M+fX6mkHppgOnvmLPYe2K+MCF1x+9Ytfp40mYOHXZSR9On69etMHDcBCxsbhk6YQvZcuZVK2qXZ42jZnBk8unubyerAU6t2baUi/ozM8RHfnCZr/2+ribQYejQKFSvOql0HqFqv0X9aX8TExChVIcSXUKZMGY4cP0q92jX5qXNb1i1eQFzsn7TdT6WSkpLYu2UjPVo2pmCeXLieOS2h52+S4CO+KU2ridYtW7F779drNaFrtK0vOnRm46HjvPYL0HZ+P31KWl8I8SVpVn326t2bYydP8P7NS20PKk/380o1bfC5dYM+bZpz/ZIb+/bvY/jIEWTIoNnmV/wdOhN8EsMecXzddGZtukk8Kl6dWsr6MwHaWnL8GzyOHGDrkrnsvRb2cUwVxv1z+9i96zRnj67lxN144vxvsHPBWPXjbrN3xlSOPJbGXboiMjKSqVOmaFtNNGjdjmXbvn6rCV1jY2fH+NnzGT3jF2bP/oXevXrzxveNUhVCfAmZM2dm2YrlzJw1gxVzZjBhUH8C/PyUauoUFhrCLxPHMmXYQH4a8CNbt28jd548SlX8XToTfAytCuKcN4wLp24SotLHMjP4PvRHFXmdlSOXElSoCbWzPmT3wdvq0BPI6flTcacGLZtEsXviMYIyGGJsn4n33re563WCa/5hSOzRDUePHKFenbp8CI9m0+GTNG7VBj29tNds8a8qVd5ZuzdR/uKlaNGsGSuWLSP+C3SkTqtkXyTxT1SpWpUTp05S+rti9GnbnO3rVmtbzqQmmmkBmj2LNHsXafYw0lzW0uxpJP4dnbrUZaZOsLaxEURrjnOqvNRuko/Liydwr2hfKicdZMEBEzp1q8DzvePZHd+OHrXsSPJ7SYhjZcrn1ich+BJXXyaRtVRPZi2dT4sCurfhXXqiaTXRtXMXli1bod2PZ+TUmWl6x9W/w9DIiM4/9GP17oN4XbtJ4wYN8fTwVKqplYqgB/sZ3aIyY3a/V9/6N1QE+mxnRJPKDN/y7l9+rc+LCfQj5JOZM5on7gv5oU5b1t9IXW+W4v+ZmJgwcPAgDrgc4uHNq/Rq3ZRbV72Vqm7T7FGk2atIs2eRZu8izR5Gmr2MxL+nU8HHyNqKDNFRRETd4+r7/JTLepXDJ5KxMfTk9P1sDFy9jOZ57rNrayT1OpclA3HccTlJcrlq5DaE4MvuPDWvSqPaDjJ5KQVpWk0sXLCA71u1pnTl6qzZ65Jqe+x8bVmyOTFr+Rp6Dx3FyBEjGDp4CEHv3yvV1EYfm1yWxAdmo5Sz7b98Depjm92MMD87SlXK+re+lio6nKi/cLpXFXeJKS2rM2jpfWXkt8xwymZISGJBShWV/VBSuxw5crBh00ZGjRzBrLEjmTFmOB+CgpSqbomOitT2ARzxQ3c6tG3D/oMHKFK0iFIVX4Ju5QNjS0wT/fA840fB6vkxUoURHmlNyfodad+qCrYRb/EPvMmDiLzky6JP6N3trDwYqj7I5iIqPIIrF+7wXZuOFJG5XinG3c2d+vXq8eDxM9brcKuJP5Ic9573wd/2U36VWnXYfNgVC/ssNKjfgK2bN6fKSzwRt9x5YFuJstn+/aEl/NolntpXplyuv/61EkIu88uQxdz7C1cO9U3KM2jlNiZ3L6SM/JYKv8ueJJSvQZHUuY+m+IR6Depz6uxpcjhmpkeLRhzcsVWnXmfnThyla5P66mNQNK5nTtG+Y4d0PS3ga9Gp4KPpUWJtrUfu8rXJqT7Y6JtUolG9d6waMpa5C1fh+iKZTNZ5yKo6xbzR09l2F2yMzQh9/ZRo/Vt43sxJjXq5kAtc356m1cSP/fozedJkBo//WQdbTUQT9VdOAxDH5V9a0KvPMl4lftsDjqb1Rd+hI7WtL1yOnqBFs+bcvXNHqaYGiTy4cAWzIg5cXTqOMWMXcf7Z/yeQ5MT33D6xlfXrD+Ph4cKmQ3fRLDjWNGX03rWQZeu3s2fnTi4+0fyc4rl7+So2FaqSxzAMn2NrWbRgFQc9XmsfowkmIY/Psm/bKn6ZthLPtwk8OT6N7s17s/PJWx56//Fk1oQgH07sWM+u034YWv3/YTAu8AZHdmxk7Yp1bDj5ilLVyyOfo9IWMzMz9e/mWHbu2cWl0yfo176Vdr+tlPTm1UuG9+7GzrWrWLZyOXPm/oKNjY1SFV+aDgUfFQF3g6j582zqZf/4benp29P8l1PsXjyUHwf1o3WVHJia1WDG0WOsmDWBnzp2Y9Ke3UzrU5ls5lWZ7baXDnl0KsuleZpWE+vWrKFpo8Y45inARpfjlK9STanqhmRVCJcXDWP/X5qrYULZvquYMbMbOQxTpglizrz5WLxpOy06ddOu/Jo4fgLhYeFKVXclJz3n8uVXqKLjsKtQE5uXGxk3djNv1DlGFfOALaPGccG4Hp3amXJ47ATcXxqhuYgUeXURCy/lpXuPFmR+cZN3xnrqkPQED+84SlcriUHkS+49iCBXrbY0q5RDe4n74aHxTN4cTcW2PSgctp61B16Sr0F3qmbLQIMfZ9K1huPHb+ozjOwK4fj+CMeeqD88GWpGVATdXMPwMadwqNuN9pWCuXa/GJUqyZyKtEqzmegu9ftH7549GP9THxZOnaTdcf1bio+LY92SBQzo1Ia6tWto9yLS7Ekkvi6dSAn+x0bSZeAK7hnXoEax/93TxQQbx8xk/M1pHGMrezKZav5kgLWDvXwiSyGaHX2bNm7COfdLrNi+lx4DBn2x/loJofdxP7CLQ1s2cPnxrxv+JeF/6yhHdm9h+5p9PA37GEzi/K5yaMU01u6+S3y8H17b5rB++3WiVBDre5zFfVoxdeNT3jy+or2/RnzQPc7tWseBY15cObqOCz6x6oAUzP0zu9i34wwh+lbqVOfHtX1LWTp7F8/j43njtYnV87bySHnehNCbHFq+hH2793Jk7zn8ErXDX0z9Zi3ZctiVmMRk6tWpw8H9B5SKbor3u8C1gDoMnNqDOpVq065hYWJev8Av/j2HJw7mauHR/Fg7M0b6cYRFOFC+al7t2dmkyAj8fDy4E2JGue+7Uz6bvvpneokbAWUomf0KO3b5Uq7/MFqUtNHeP/zmEsYsTabDqCZY++3n8LUcVK+ek4Tgi3g+LIJz5T+fQK8Jwzdv+VGiamU0HZ5iX+9m9KAzVBo9nAr2+sT6vYVS1Smt/jUQaVvL1q04deYMZkb6dG1Wn5Mu3+Z15nnBjW7NGvDe96V27yHNHkSpbVpAaqUTwSdz/SmsmfcTdb6z1q1rb+KTNK0mRo0YyU8DBtK570/MXbORbDlzKdV/L+rpXuaN342JcyuKm1xk0zo39Wf8SG5uGcqa85mo0aYzNRxOM2/Wx00AjbNkI/LqQQKTE3DftI9nQY84uf04vol6ZMjegGbVs2BfrT8De308ExXxeCdzpxzFumY3qpsdY8H0owQZGaGnb0vunAGc3/MEA3tD9AyzYBfrgedrFWHn13HmQRCPjmzC67HmzFE811ZO5mWuHrRokh3fOy8x+ApXxswtLRk6aSozlq1h3YaNdGjXnqdPnipVXaIi8PIlQkrVoZw2d6h4HxiCWc68WN5ZxZobFenVOZ82uIR5X+BBxoqUVyYNW1b9gXZZTzJl3D5C8xYhl6H6sR6XeWGh4vzP47hqWJKc//k8FMKx1VuIyp2Vh1tmMHXxA+rMXUuX74wJ8bzIqzxVKZv5z38QqojLeN4tQIUqdupjTjinlyzCv8IPNC9opA3A5454k79qNTLJASld0DQSnjp9GuvWr+Pwzq0M6taBF08fK9UvK/Cdn3ZvoRWzp2v3GtLsOaTZe0h8OzrxstYzNMNUJhDqPM2eErt37qRB3XoYZrRk6xHXL95qQhVzjbWjt5C951icHQ0xy92M7j2qEu01l0X77GnbtwoW+vpYZLYn/JaX9jEJIZe49Sw/FjHPydH2J2rmMMDYKS+ZDZPVb2IfuO7xmAIVK2k/2ccHnWThqGOUHDyC0pnVb7zxoSTaV6S4Zlmg+s06+NYtYopXpYil5rEhXPN8StbM0QTbdaJD85wYqLLjlFPzhp1MdFQgD72vEW1amgadqmD/FT+s/dr6onKdBrRv245fZs/RsdYXkXhdvEeRKh/PoCQnveDC5SCcm9fi9eHjmFVtRFFTzfhrDmw8ToZy1bSLEJLj40kyLsQP8yaR89YcVh0P1X4t70s+FGs2iBE/VOTJiaP4KdOzVHG3uX7biPINWtO6zzjmLJxGu3KaFWQxXLt0nZyVquH4F34OYVfceZy1MuWy6at/5zw5dS6GMtUroclX4bfXs+WCE87VHGW+YDpT/LvvOOhyiBbNmjCkR2dWzptNTHS0Uv13NHsIafYS+qFNc+3eQpo9hjR7DYlvT5qUpjL58+Rl9pw5GBh+20Pyh+APbNu6FctMtgybNJW8BT+1Eubfe3ekH4O3F2fh9gFk+89fMZiDA2tzKf825g4qpn6TU/FqeycG7SmDi8sIAo7254e58fy0biX18sdydFhtvIvvY0qPnCSHH2Fiky1U3LybprkT8J7blC3xU1k43hljojk/uS67DH5h2aTKGKk/+R8ZWourJQ7wc/ccqMJcGN9wNpYDtzCqQ35Cjg9g8K5SLNrYm8zq7y3qyTpGdd9IrhE7Gd4yxzf7FKFZhrti7kwunz/HDz/++NU/LQYGvufCubPs2bdHGfk9VcxphtdZi/OOXbTLCb7HhzFkx3fM3dAc994VcS99hHWDsnJ92wxmLjtJ4VH76V3SBpXXHl417kfdTHGcHF0Dl7y7WdL1GWPrLKL4+gN0yenB2Aa/UHDFfhpEXiOqkB6bmvQk4odzLOqSFb1EP654hlKsQhgz64/DfsY2mjpkJHe+Pzp7HMe5ibVYYzqPaW2zk9PWjR7Oiym64iLDi7mzYNpKzr+sxqJ1TTDRz0deB9097SNNSr+eYPXrbMb0GXh7X2HA6PFUr1tfqfx9mr2DFk6bTI7sTvw8dYp2eb1IORJ8Upl8ufPQpGkT9PW+7cE4MDAQT09Puvf/ic59+n+xuTz/LY6LU2uzMX4Kq6fX1k581VDFX2Vhi8GYj3ajb3VjklUB7O1fTx2ENrJkRAH1G2ZNjlovZ+HY8uhHnWRK41WUXL2fVgUNCHEbxYBlWZm1axjZVReZ3WQyjjNO0L2cMbFvtjKqzTIKTT/Pj7XNSIo+zbTGy/lu1cfHBp8eQr9Ftkw/MImCJhHq56nN+ZxbmPVjQZLi4zEyNuTlkZ8YMc+IES5LcLb+dpOhNfMQZo4bhXOVqlhn+rqbQsbFxRMcGMDBQ5+f+xD39gBj+h8jb89W2L314lZAYboOa08RaxVXF7fghw0xfOdcjlrty3Jj1GzCGoxh7IjGPJnRkP1mg/mhZjgHNzyg4cxZlPefTrsJJsx3GUVh43g85jRmjFcZ+g8bSruqmbizvjv9lgZRok5ZnGzzUadLN8pbqINU5SWYdhnGoH4tKPSblVr/KznpKYtaN+S803gmjelCmSxPWdaxFWte5aVqrVZ0rHCb0fOCaf3jEHq2L4217uYeCT7fwBVvbyZOmIh9VkcGj1MfP7L/9dASEhys/ZBy59pVJk2epF1OL1KeBJ9UpkDefNx7+AAjo19jwbfj7+/PtClTuXfvPoPHT/4Kq7fi8Zpdj0Wv+rN6eTus9ON47nkDs9L2HO35IybDjtGljBGhN2Yxemo0fddPpYTZeWY2XUjhpYf4vrABHzRBZ6EtE1Z2J3uWTNybXZ/terMY19YeM6srTG6wi+o7DtA0y132z5vK3jNZGLhlKPnt8mHxcBIDZmVkxPw2ZMvtyJ2fa3PcYR2/DCxCcvRZZjSdS545G2mQK4FLh69Tp2dLzOLdmKkOWqXW76Bxjq//Dvny6RMWTp9MQmwM02dM156a/9o0k9hnqwPJ3gP7lZFPS06K5N2LAPQdcpLFUrtUShFD4OsPmDpmw8IwkSBff0wcnbAwSCQ0OApTkyhev00kc+4cWBorD/mN5KRwwiLNsLb69WuqiAh4SahBNrLb/RrAVYQHBmFo54DZX/gxRPj5Em+bHVvl4aqYQHyDjNVvatYYxgXyOjADTtktdf5SlwSfbyMhIYEN69azds0aWnbsSsfeff7ww59mbyCXXdvZtGIp37f9nkGDB2uX0QvdoMOfZYSuyZIlC8tXrmDqtCksmTmFSUMG8N7/nVL9Eowp3rI7WR4tYeLYOWxYvZU3FkVxMMlD/a5leeSyl/NH17HthAV9V0yitK0eUbfdeGTizHd5NW+Kibzx8SGCUN4F6JFRPxZ/vyDCX17iUYwDFtbFKJz3BZuHdmP6vGs4lcpDsmEQD+/EYW2pwu/OXT4k+OMbbIpV0k2uXDWjRKX82hdJ3KvbPAvRI/S1+u9r+oi7B3ay47AXnvuOE1OpC85OX/elpJlnoJlvMLhHJ5o3baydh/AtQs/foWdgjmO+vP8TejRMccihCT2aPxtil10Tej7+2drWChNzR/IX/HTo0dAzsPxN6NHQzPHK85vQo6GPpcP/h57kpGfs/rk//fv2/d1/A4du4LXd/4ceDX1TB3KqQ4/m44SeiebPuh96xLej+aDZt38/Dh87iu+TB9rND696XFKq/02zJ5BmbyDNHkGavYI0ewZJ6NEtqfSMTzxX1wzmgP4AZvUupoylDyl5xue34uLiWLViJVu3bKF9rz607dIDA8P/fcP7Z5LjggkMz4CDfUZ+uz4nIcKfkIRMONh8/pNWcnwoEQmWWGb8+A6YGBFIhL4dmZTbqpj3BIQYk9nRCr3EYPwDDMmczUobblRRfgRG25HF/lPvwHGEhyaow5O5+ouGEh5lhkH0K4ISHXDKbqV+C/963E+7snzODCpUKM/4CeOxtbNTKt/GXz3jI749OeOTMtzOnefnyZPJX6QYP42ZoN2sVbMH0NpF87h07jSjx4zRLpMXuunrfkz9agxxKl2PaqWyKrfFt6Zp/jd46BD2HTyAzxVPen3flDvXrynVf0fPxJbM/xN6NIwssvxh6NHQM7b+T+jRMLRw+E/o0dA3tSerOvRoRvQMbcmqhB4N/YyOnwk9GiZYqkOP5nvSM7TGysoY86z5yfUVQ4+f72tG9+/FpmULWbBwPgsWLfzmoUcI8Xs1atXE9fRpChfIS89WTZg7ebx2DyDNXkCaPYEk9Og2HQo+mp2bD7Nm/jbOeexj0czlXPRNIjnRnyu7FzBl2VmuHZrB3F33eXHtAAdOBeOQ9+OkTlXsCy4eOsjB7du5+PLj7rzRvp4cObCdpXO3cDc09fU8Si1y5crFpi2bGaYOQdNHD2XWuJGEfghWquKfiI+PY/PKZfTv0JqqFZ05duI4FZydlaoQQheYZDBh2PDh7D+wX/3hykS7B5BmLyDNnkBCt+lQ8NHHyuINp/ae4XVyMUobHmPu8kskGNpjEeLJ3XtenPLwJyrRCHubAC56hmFhrk9SmBdLRq0honhDcn04wC5XXz5cX8nEpS8p3qgRNk824nrnC2+pm4Js7DMTFfOxW5Euaaj+tz515jSO9rZ0b96Iw7t3psommylNM2+gZ8vGvH58XzufQDOvIKUvawohPi9X7txMnjJF5+bcic/TqTM+772uolezB+0qFyKvky2x0dHqN89gPD1foW9Tij6zl/Jz57x88L6Gfrmq5DaM4dKSqTwv2Y/6eTNQtOs6ZnYKYumkC5Tr05hwl+mcNuxNa+fPXb5IfcwtrXC75Knc0i0ZM2Zk3ITxbN+5nfPHXbT9Zx7d91Gq4o8EBQYwZfggFk2dyORJk1i1ZjWOjn/cb0oIIcTfp0PBJxKvy/5UalIRU6K4ecuXYuVLYBB+kcu3LajWvA522u82Ao+LrylZ9TsM4q5x4owV1erm0K7AMLbKBNf3457oRJz3EV5lG8DyZZ3InXZyD2YWFpw/d165pZsKFCzI7r176NqlE2P792bxjClERkQoVfFbSUlJ7Nm8QTtPoFC+3Jw8fUo7f0AIIcTXoTOrujQ7v45q5UrL/fMoE7yVIUPf0m/TGJwuD6bd2sJs2t2P7Op0kxR1kuHNT9B0y1TKW11kVLVdNDixleYOyYS8es2HW7PpuasCe7f3wEE/Bj/fCDJnd0gzS1MrVa5GUmICXl4e6Ol9heZQX1hYWBi/zJnD2TNn6TdsNHWbNlcq4u7N6yyaNhkHezumTJ1C7jx5lIpu0azqavt9G8aMHaOMCF3h4+PDo4ePtIFZCPHX6EzwCfOcSNspSfQf6Yyv53NK9hhI1WyJnJlQl31Om1neL7c2vETcmkW7wW/oPHssrStkwHVcB9YF1KJZdScyF6pD3by3GN92Bu/LNaVsnhw4N2xN+Zxp55SPZjm7Q9ZsLF25klLFiyijuk+z7HbC+AlkyGjBsIlTyJEnr1JJf8JCQ1g1bw7XPC5qLw02adpUqeimN75v2LZli3JL6Jqs2Rzp1r27cksI8Wd0JPjE4zWnFXuzrWBsfWsy2X9+87BkVThBwYbY2/+6IVQcHwIiMMtsRwZlJDkuBP9QAxwyp71NyDTBp3m7TtjZ2zF66EBlNHXQXNbZtmUrS5cupVGrNnTr9xMZTE2Vatqneakd3beb9UsW0qx5M4YOH4a5uaalpxBCiG9FB+b4qAh/647L2XicHDNg/gehR0NP3/I3oUfDBJvfhB4NPZNMZE2DoedXtWrV5OL5c8qt1MPAwIBuPbpz4uRJwgPf0b15Ay6dO6NU07YnD+5rJ3ufOXyALdu2MHHyJAk9QgiRAnQg+CSDUWF+XL+eNgV0aK61DqviXI7Xz58RGJQ698uxd7Bn0ZLF/DJ3LusW/sLYAX3wf/tGqaYt0VGRLJ01jVF9e9CxQzv27t9H4SKp5xKlEEKkNTqQNAywdHAie/bsODn995kb8WkZTIwpVaEirmfdlJHUqWKlihx3PUnFcqXp264lW9esICE+XqmmfmePH6Vrk/roJcTieuY07dq3TxUT0oUQIi2TUyypVPWatXA7l/oud/0vzeZ8/QcMwOXIYZ773KZXqyZc99LNfYr+Kt+XLxjeuyu716/SNnWdNWc2mTJ93GVcCCFEypLgk0o1qFuTax6XiE/42KIjtcvm5MSa9esYN34s8yePZdrIIXx4/16ppg5xsbGsW7yAnzq3pV6dWtqdl0uXKa1UhRBC6AIJPqmUY2YHsmbPwWXvL9MYVFfUrlNHe1koX64c9GjZmP3bNmtXg+k6T/fzdGvWgKC3rzh28gQ9e/XSTuYWQgihW77JcvahgwcTHBRMg4YNlRHxT02cMIGHTx5rLxFN/2Uh0dHRzPx5/MdiGvP82TMmTZxEcEgowyZNpch3JZWK7gjw82PJrKn4Pn/G1OlTqVylilIRQgihi75J8Nm/dx83b9xQP5tM7PzX1D+uqTOmo6+vz5UbtxgxbDgX3M4qxbTpiMthZs6YgXO1mvQZOhJLa2ulknISExLYtWk9ezevp3uPHvTp1xdj4zTUG0UIIdKobxJ8xNeh6X5evrwzu/buJV/unMpo2hQREcGCefM4dvQYvYeMoFHL71NshdTNK14snDaZXDlz8PPUKdoViUIIIVIHCT6p3E9DR1GwUCEG9u2pjKRt93zuMWH8eNA3YNikaeQpUFCpfH0fgoJYMXcmPjeuMXHyZOrVr6dUhBBCpBYyuTmVq1W7JhfcdLtb+5dUtFhRDhw6SNvvWzOsV1eWzZmh3STwa9KcWTuwfQs9WjQil1NWTp09I6FHCCFSKQk+qVyd6lV5eOcm4RFf981fl2gucXXo1BHXM6dIio6ga9MGnDt5TKl+WQ/u3qFf+1Z4nHVl157djB4zBtN01F9MCCHSGrnUlQa0ad+ZDp0706pJA2Ukfbl+7Zq287u1rT1DJvyMU85cSuWfiwgLY82iuXicP8vosWP+oMGuEEKI1ETO+KQB1WrW4tzZ1L+L8z9VpmxZjhw7Sp2a1bSNQNcvXUh8XJxS/ftOHNxP12b1sTAx4vTZMxJ6hBAiDZEzPmnA0xevaN+mDVeueGmXuadn/v7+TJ86jbt3fRg0fjLOVasrlT/34sljFkybhCo+nukzp1OseHGlIoQQIq2Q4JNGVKtRm/kLF1Ku1HfKSPp28cIFJk+cTM58+Rk0diIOWR2Vyu/FREezcfkSTh0+wJBhQ+nQsWO6D5BCCJFWydE9jahcvSaup9P2RoZ/R9Vq1Thx6iSlihel9/fN2LF+jXbTwf/lrr5P16b1iQ0L5uQpVzp17iyhRwgh0jA545NGnLvowdzZszlx7LAyIn716tUrJk+cxFu/dwydNJUSZcrx9vUrFs+cQpD/O6ZNn0b5ChWUewshhEjLJPikEZou7eVKl+XEmdPaBqbi906eOMG0qdO0l718XzynT9++9OzdC0NDQ+UeQggh0joJPmlIzz4/UrV6dXp0aqeMiP8VFRWFy8FD1KhVE0fHz8/7EUIIkTZJ8ElDtuzez9lTp9i8frUyIoQQQojfklmcaUiD2jW46e1J7L/Yw0YIIYRIyyT4pCEOdrbkyJOXCx5XlBEhhBBC/JYEnzSmSo2anD2XfndxFkIIIf6IBJ80pn7dOlw+fw6ZuiWEEEL8ngSfNKZkscLEx8fx6OlzZUQIIYQQv5Lgk8bo6elRsXpNTsouzkIIIcTvyHL2NOjwidNs2rCeA3t3KSO6T7O/zpZNm5VbaU/27Nlp0qypcksIIURKkeCTBkXFxOBcthwXPTywtrJURnVbQEAAlSo407dfP2Uk7bh544b2/zv37Nb+XwghRMqR4JNGte/cndbff0+bFk2UEd2mCT7NmzTF62raW4p/6eJF1qxazZbt25QRIYQQKUXm+KRR1WvW5JwsaxdCCCH+iwSfNKphvdp4X3QnKSlJGRFCCCGEBJ80Kld2J6xsbLly47YyIoQQQggJPmlYlRq1OHVGlrULIYQQv5Lgk4bVrVOLS27nlVtCCCGEkOCThlUqV5r3/u/wfftOGRGfpyLowX5Gt6jMmN3v1beEEEKkRRJ80jBDQ0PKVa7KyTNy1ufP6WOTy5L4wGyUcraVF4YQQqRRcnxP42rWqoX7OZnn81dE3HLngW0lymaTl4UQQqRVcoRP4+rVrsHta95Ex8YqI6lL7Ftvti+eytztd4iL98N902wWbL5GhPZaVDi3XRazZPstYrT3TuKV+1Z2u71V/zmRl55b+GX0ePbdTiDq5UkWjBzCwsMv1PeK5v7RBYweNgc3318vaiXy4MIVzIo4cHXpOMaMXcT5Z/FKTV0Nf8SZfdtZNWcam875qb+GivcPT7HhlzHM232fey7TmbTUk0jl/kIIIXSTBJ80zi6TNXkKFMbtoqcykrqYZM1OpNc+3qkScF27h4eBDzm48RjPEuJ4etkNn2unOHD+GQnq+yYnveXo8nnceG+qvmVIFqcYrp4MRC/Rle2ukZgnXOH4mdvcOLgerzhboq/s5uL9RO3zJCc95/LlV6ii47CrUBOblxsZN3Yzb5Ig8vkhJo/cAuXa0r70B7Ys3o9vkj52+QsQdeUMvi9cWb3JlSsPA0mQyUFCCKHTJPikA1Vr1uLs2dS5i3PChwt4PSmIdcwzcnUaSONc+hjlyIeTkQl5K9bANDyQYs4VyKi+b3zAOS4/KkqFypnUt1QEXrqEX97MRL/MSrveNTAJj8BG/zVvnLrRpZYZMTGFKFrMSPs88X4XuBZQh4FTe1CnUm3aNSxMzOsXvIm6ydJBS7BoO5qaWd/gsu8GeerUwNFA/b0FX+TKc1viVLkZu/ssR5Y0J5O8ooQQQqfJYTodqF+nFh7u50mNbdk+XDqHj545xaq34DvrKDzdblGgShVtwEiOv47HdUfKVc2KAfHc27OHl3mrUS6znvqREXi63ySDZUGqNi2DeeRlPG/oYVukLo3LWRLi4cazHJUpk0VzX3VIunyJkFJ1KKfJTJrLWIEhmOXMi9HplRx8n4+MvpuZNWEpbyvOZ96A4hhrvjePC/jEmVGxaWOyGhtjpA5DQgghdJsEn3SgWOEC2v/7PHis/X/qEYnX+avkatKPJgWNSVKHlwvXslGhqpM66EDUHTfuZaxIudwGRL88z/5zr8lXpZr2bExStBceNx1o1rcNudQpJeyqu/q+jejWqbA6tMRwzf0qjhWr4KQNK+rnuXiPIlUqY66+lZz0gguXg3BuXovAq7ewKlOfVi37MO6XBYzrXhZr7asmGu8L17B27kDjoh/PGgkhhNB9EnzSAT09PSpVr4nrmdR1uUsV483Fq1lp0Lqs9gxLmPcZfKwqUcIyiFBVIk8uXcWwZEVyhl/jzJ23RAY7UMbZgbAwFZE31aHIojZ1ymRQPzKOW+7eONRuQamM6q8bd4tL3hkoVcYc37eJ2ufxuJVbHajs1C8IFW9cl3M54wB++j4bphmMiAmLxsjCRF1L5LXXRZ5Eab7GdTyuGFDj+4bYyatICCFSDTlkpxO1a9fi4vnUFXwibp7jdoaKlC+gOS2TyIvbdwnXC8XXXw9zfRVRUZH4XlrLosMJlCoay+sgPd4/fUacaSI+6qBjXqE6+dWJSRV/j0teKsrXLKkNUIlhz/AN0ePN/beYZTEk4UME2Frw/uYJdi2fzHKv8kxb1p08xsaUbdeDHI/n07vXCCZOmsel2DzkUYenKB93bsZVokZlC+33KoQQInXQS06NEz/E3xYbG0u5MmU5f+mSdqWXrgkICKB5k6Z4Xb2ijPxeclwoYQmWWJt/zOvJ8UH4BWUgi6M5BkTz3j8BmyxW2stgfyYxMVG7weOvkpMiefciAH2HnGSx/P9xjcSoAN4EGeCY004bnP6uSxcvsmbVarZs36aMCCGESClyxiedyJAhAyXKVuD0WTdlJPXRM7H+T+jR0DO2I5s29GiYYf8XQ4/Gb0OPhp6BOY758v4u9GgYZsxMrn8YeoQQQugWCT7pSPVatTh/TtpXCCGESL8k+KQjDevW5qrHRe1lHiGEECI9kuCTjjg5ZsEucxY8rt5QRoQQQoj0RYJPOlOlRk1Op7Jl7UIIIcSXIsEnnalXpzaX3CT4CCGESJ9kOXs6k5SURLmy5Tlw2IVc2Z2U0ZSnWc5eqYIzjRo1Uka+nuDgYDJlyoS+/rfJ/ffv38fBwYGde3YrI0IIIVKKBJ90qP+gYXxXogT9e3VTRlJeXGwcZ86cVm59PWGhYUycMIFevXtRomRJZfTrs7e3p3yFCsotIYQQKUWCTzq099BR9u/bx65tm5SR9OON7xuqV63KwkWLaNaiuTIq/sjzZ8+Y+8svGOj/1V2SxJ9JUiXh7OxMtx49lBEhxLciwScdCg0Lp2qlSnhevYK5mZkymn5s3riR5i1bYm2teztY66Lr167RpVMXfpw8WxkR/5bnmRPYmRmxeNlSZUQI8a1I8EmnWrVpT/devWnWoI4yIsSnaYLPxKkzmbZe5ih9KZdOHuHFVTcWLVmijAghvhVZ1ZVOVatZi3Nnzyq3hBBCiPRBgk86Vb9ObTzcz5MeT/hdcHcnISFBuSWEECI9keCTThXKnwdjkwzc8nmgjKQP/v7+9OjWnTOnv/4KMiGEELpHgk86paenR+UaNXE9fUYZSR+SlD5liQnSryztiObl+VlMbt2J0w+SlDEhhPg0CT7pWO1atbjklr66tWdzcmLGrJnUqFlDGRGpnxk2lnGE6xUhfz5DZUwIIT5Ngk86Vr1yBV4/f0ZgULAykj6079ABC0tL5ZZI/eJ5ftmbjGWqk81IGRJCiM+Q4JOOmRgbU6pCRU6edVNGhPj3VLGv8Tm1k7PuL1Chpx5Jwu+6N0GJeiSEX+fEmn34RmnGITkxiMfndnB0x1F8rh7h5Akf4lUhPHPfwrYZM/B4+Ixzi8biejVCe//EyCdcPbqTg8tm4nr5Hcnqr5+c+Jy76nqRSqUh9DZuW9dy/XGM9v4ayUmB3Du1h9N7VnP08B1iVB+fO/TREfav2MXr6I+34/0vcmrPRUKS1LdVodw7tJT9O3Zy7uBu7r749RKairBn5zm/fy3bF6zhvr9KGRdCpBYSfNK5GrVq4ZbOlrWfOulKXFycckt8afrGWbCMPMuhbecIVeeF+JDT7JmzB/9EdU19xAm+fown75PUAekRx6ZN4r5Rbeo1N8V95mTuvDHCUN+GbHljeXDRj5fuKzjldhG/4HgiXx1m/ZStGJT8nprFQzm+9iCB6q8f99adh+/LkNvhMsf3ePDo0hqOHn+gjlt6JEXd5tDEyTy3qkvt77/H4OJI9ruFEOPrwZ2H1/He68Z77QK/JN6eXcEJ7/cYq3NP5K0l7LuSm0btm2Hle5tQI004iufFycls2hvFd826kT1iM8eOPdc8WAiRikjwSefq16nJdc/LxKeT5d3v3r2jf79+nD2TviZ1f1P6xtgVLoJp0Gs+JMXx+IwLzwNCiIpWYWCel1yV61DY8QMX5gzjeYHhNKuaBQP9eKIiHShcIY/6oJRE8BVPgq2jMMkxjOl7z9Glpi/7JyzHqvkISmT24/LRG2SvWg1bgyQCPC8QnsuOD3czUrNnE2z1DMlZJD8GRHJt+Uju2PSgfgUbdeiyIJOt+vu5/hDT7M4UMQ8loWAFcptDsiqQWx6PyVuhEmbqo2JiVBTvH3ryMsyMIo27UCCLARE+y1m9TkW9Hxtj5n+Qy7ezUbJiTuUvLYRILST4pHOOmR1wzJGTS15XlZG07cXzF9r/3793T/t/8XUY2jtgFhnKB99T+FvXJa9FOBGhKqKenCEhbyNM76/l6N0KNG6dT30QSib8xkV8zSpQuKCx+tER+HjdRC9DeZzrOGFoZEzw2TVcDs6D0dutbJm9jJCyc+jXozgGqmDuePpgZJKb0i0qkyHsMg9eFKdIaXMSQ05y1tWE8o3LYKx+jmTVB/xeBWOibdOSwCPPmziWrYK1AUQ/3YuHTx6KlnfQXDzDyrkX1R1OsWHmAaJzFSGz4Qc8tmwnIWcWnu+dzaZ1D6g4aRV1imi+XyFEaiLBR1C5ek3OnE3bq7tiYmL4ZfYcBv00kPKVq3Lo0GF++nEAAQEByj3El2SgDheGCYHcuZxI0ap5sbCIICzoMVeuWVGqojkPT7iSsUIDcmbQzMHxxX3XSUxLVSGHCSTFeHPvtgGlWn2Po3aycjxPb97B4ru6VG/Yh+4T59G5XRnM9ZNJirjM3XtZqN7je7IaqwPU9UsE565Evkz6xL56QGCG4uTJ83GlV3zwee4+ysZ3VQujSriDzy1zCjvnQi/hJdcPuRGZvQoFnQxITohHZVSQZj+Px/bePI6cDUEVf4dH9/UpUrMlNbuMof+Un6lR0kYbkoQQqYsEH0H9uppl7eeUW2mP5rJW/Tp1eeH7lo0HjzFvzUa2HHHFPnsuGjdoyPp160hKkv1fvih9Q/XBJYhMheuSxSgTGc1DuHPQHYfadbDWjyDQLxgza2v0VGH47F+J11N9CpTLw/uXoUTcuchz/RpUqpn5P8HC2MSIuIgYjMyN1WMJ+F+/jF+0HmHX3HiXtTHli5mq7xXDA+9bOJYtR/KHEPStbLDIaE4G7VEuivs790Dd0dQsZkzsi8s8jytJ/nzh3D97l+DoIDKXdsYsIpRXhzdzJxRMsjSiaiVjQgMiUOmZYmwYpw7Qhpga65Oc+I573g/UkezjxGghROohwUdQpkRxoiMjePL8pTKSNrx984YfevVmxoyZjJg6iwm/LMTG3l5bM8mQgd6DhrFs2x5OnTlHs8ZNuHH9hrYmvgQ97Kv9SJ0y5ugZZMLKNhslWnagiIPmkGNJnu/y8WDXQGaNnsPbbGVwSDbi/b3bqGwy8MLrCqZl6pLP4uNXUsceijbvit2zxcwaNoa1vyzgXlxusphF88DjOlkq1MDBUHPm6C2vn4YT7XeTwNiMmOZsRa2SL3BzccVt22J8zIYwaEQt7ZkiVXQk0SGXcVl0DMOSRYjzDSYh9BnvYwzwvb+Xk+sOccdzD7cCq1CjruZyW0lqtC3BndU9mTdlAptXnEI/RwHtJTQhROoi3dmF1k9DR1GwUCEG9u2pjKRemj5c69auZf3adbTu0p0OPX7AyPiP52KcPX6UFXNnUrNmTUaPHYO1tbVSEf+oO7sqjIgICyysNEFHRWRIGGaZbLTzeT6K4cObEEyzZMPUMIHQt/6YZMmOqcHnD0dJ0QEEfjDC3skWw08GDhXhvk9ItCmETcZf64lEBgaCVTbMTX77mHhCNGedMjtion7O6CB/9Kyzar+XyJAoTIyjCXiXiE3OHJgZ/fo4FdHvXxFl4IS9zb/bMEi6swuRcuSMj9CqVbsWF86n/stdXp5e2stXHl5XWbXrAF37DvjT0KNRu1ET7eUvlaEJ9WrXYc/u3emygesXo2+lhB7tDcwzZfpN6NEwxcbJUR00NGOGWGdz+sPQo2FglpmsTjafCT0a+lhmL/ib0KNhiLmD4/+EHg1jMjlm1YYeDTO7LP/5XswzWWGUMStO+bL/JvRo6GNmn/tfhx4hRMqS4CO06lSvwsO7twiPiFRGUpfgoCCGDRnK8GHD6TFoOLNXrlO/SWZXqn9NRnMLBo2bxJzVG9i2fSdtv2/Do4cPlaoQQoi0QIKP0LK0MKfQd6U4435RGUkdVCoV27ZupX69+mS0sWfz4ZNUq1NPqf4zBQoXZfn2vdRq3ILOHTszc/oMoqKilKoQQojUTIKP+I9qNWpyLhUta/e5e5dWzVty0OUIizZuo9/w0Zhq92j59/T19WnWrgObXI7j9z6YenXqcvLECaUqhBAitZLgI/6jYb3aeF10055F0WUR4eFMnjiJnj160rR9Z5Zs3knufAWU6pdlbWPL2JlzGT9nAfPnL6RHt+68evVKqQohhEhtZFWX+C/VatRm/sIFlCtVQhnRLYcOHmT2zFlUqlmbPkNGYmFlpVS+vqTERPZs2cjO9avp1r07ffv3w8TERKmmXbt37WLcmLHY2NgoI+Lf+vDhA0WLFuXwsaPKiBDiW5HgI/7LuJ9nYGZmxoRRQ5UR3fDs6TMmTphASFg4wyZNpch3JZXKtxf4zo8ls6bx6ukTps2YRuUqVZRK2uTt5aU9w7Z95w5lRPxb836ZS5asWRk8dIgyIoT4ViT4iP9y7qIHc2fP5sSxw8pIyoqNjWXZkqXs2rmLrv0G0KJDZwwMDJRqyvJ0P8/iGVMoWbIEEydPwsHBQamkLZp9fDRn2fYe2K+MiH9L0z7F0tKSfj/2V0aEEN+KzPER/6WKczn8Xr/CLyBQGUk5586e1baaePrytbbVROvO3XQm9GhUrF5Tu4rMLltOGtVvwMb1G6T1hRBC6DgJPuK/GBsZUaZiZU6eTrnVXX5v39Kn9w9Mnz6D4VNmMnHuov+0mtA12tYXg4exdOtu9b/ZGZo1acrNGzeVqhBCCF0jwUf8Ts3atXFPgV2cNa0mVq1YqQ0PuQsXZ8OBY5RxrqRUdVuO3HlYsH4rbXv0oX+/fowdM4bQ0FClKoQQQldI8BG/U792DW54exAbF6eMfH1XvL1p0qgxl7y8P7aa6PfXWk3omjqNm35sfWFgor1Mt3fPHml9IYQQOkSCj/gdBztbcubJxwWPK8rI16NpNTF8yFCGDhlG95+GMmfl+r/dakLX/Nr6YtbKdWzZup12bdry+NEjpSr+V0Lwfc4d2onrjTB0ewcpIURaIMFHfFLVmrU4c/ascuvL02ySuH3bNhrUa4BpJrsv0mpC1xQsUowVO/ZRo1EzOnXoxKwZM4iOjlaq4ldGtk68P7WJB7GmckASQnx1cpwRn1SvTm083M5/lcs0Pj4+tG7Riv0HXVi4cSv9R4z5Yq0mdI2m9UXzdh3ZeOg4bwKCqVe7Lq4nTipVoaGKvcGNN6WoWCr1XdoUQqQ+EnzEJ5UsVpiEhHgePnmujPx7mlYTP0+aTK/uPWjctuNXbTWhazLZ2jJu1lzGzp7HvPkL6Kn+N3j9+rVSTTuiXl7i8MFD7Nx+mjfxmpFI7p87wL7tq1h/6CEx2ntpqAi6f4r9u7eybtE2XuetTnFTzXg8L70Os3/bEpZsuU64XPsSQnxhEnzEJ+np6VGxWg1cz3yZy10uhw5pG32GxcSzyeUkDVu21j5HelOybHnW7TtM4dLladW8hXZzxvh4bUJI9YK8FzNpVQAlGhTk3aGNXHj1HtdZwzgSVYGWHVqjf3QCux9o9jlK5MnRScw6aEjNNm3J8v4ReapVwkwdkjxXD2fr86I0bJwFn00HeZzw8WsLIcSXIsFHfFat2rW58C+XtT9/9ozOHTuxavVapi5ewYifp2Npba1U0ydDIyM69urDmj0uXL99l4b1GuBx+bJSTZ1UMV4snXaViv1aktM0P73WrKJe4EJW3K1Il0bZMNA3RC/pOS9fJhDzZD0/rzSk05BaZFI94t7zglSqbEno1YXMcy9O58YJHJh5ENse3SiR9luhCSG+MQk+4rNqV6/Mk/s+hISGKSN/nabVxPy582j7fVvKV6/N6t0HU7S/li7K7OjI9CUr6TdyLKNHjWHQTwMJDEz5HbP/iYjrLly1rEWVHJpDiiFWmUy443oZR/XPPrMBJIVf4ebDHOTJo8Jzy3YMa7WlREYIct/CRdPKlLWLx/vAMfQcjfA6cp/8/dYwo0t+jD5+eSGE+GIk+IjPymhqStFSZTntdlEZ+WvOnzun3cPm8fOXbDh4VOdaTeiaSjVqaVe12Trm0La+2LRhY6prfZEUFkaMvpE2qCSrwnj1MpjEJAMcsjlggIrXx/fw1vkHGuUN5fHTIByyO5H03o0N6zxwqloFgw8hhIZFkaVIfdp1bkU5x3DeBUr7DyHEl2fws5ryZyF+Jyg0HE8PD5o0aqCMfJ6fnx8jhg3nwMGDDJ00jQ69+mCWUf2xPjVRqUjW0+Nbzz4yNDSktHNFKteozdaN69m6aRNFihTRdvBOae/UP9dLFy/Rtl07ZeT3DGwMebhlBa6+sQS/8scifzmKZvvAmXN+GMZ6cfbJdwwc0xynDMZEPjjIhgPe+IZnxsnkLveCrMj3XRmK271h3ZLdPAl8y0v/jOQrmRNLQ+UJ0pjLly5jYmJC2XLllBEhxLci3dnFH3rp+4ZWzZpz9dqVz5610bSa2LBuPWvXrKFVp27qwPMDxsapa3JGQug9XOaP4+j71sxb0RW7FD4XevroYVbNn03tOrUZNXo0VlZWSuXb+7Pu7JrLmk+fPiU5PpzQaBMyWf//zz4pOoQIlSXW5v//u5OcFEVoSDKWduaoQt8TncEeqwwfa/Hh74nStyHTb+6fP39+bUhIS6Q7uxApR4KP+FO16tRn+syZVCpfRhn5f1evXGHC+AnYZ3Vk8LjJOGbPoVRSQjRRUSZkzPhPLquFc3hITTwK7WJmv/w6cQ04MiKC9UsW4H7qBCNHj+L7Nm2Uyrf1Z8Hn2dNnDB08SLn15a1et46sOnDm60uS4CNEypHgI/7UxGmzMTQ0YPLYkcoIBAcHM2vGTDw9vRgwejzV69ZXKikjWRWCx5KxPCuziK5VldMHf0NSzFlmNJ5HgUWHaf+dbk2pfXTfhwVTJpIxQwamzZxOgQLfdu+jPws+4u+T4CNEypHJzeJP1atbi4vnz2v/rMnJO7Ztp4E66JhY2mgn5X7b0KMi6PYuNi3fyOEDuzhx/hmxvsdZ3KcVUzc+5c3jj/3FkpMCuXViNy7bV7HrwB2ifrMRXkLofdzVjz20ZQOXH3/cUi/6/mWemFSgRCFDQh4fY9eyRezZ70VAzO+f71vTtL5YuXM/1Rs1pWO7DuoQMlNaXwghxD8kwUf8qYplSxMU8A63C5dp1aKl+pP/QRZu2MqPI799qwlV/FU2TfegYJfuVMv+nCevjciQvQHNqmfBvlp/BvaqhirqFttHTeKeVV2admiDidswNp4N1T4+6ule5o3fjYlzK4qbXGTTOjfiSOSF5xWMS1clt2EkvvcekpClFg1aOGNv8PvnSwm/tr7Y5HKCN/5B2tYXp066KlUhhBB/lVzqEn9Jlx69ef70KR2799S+AafUrsuquLNMbzCTzJP30rtSEC9f5yVPnhD2DajPg6pHmdDREo8ZzditP5N5Yytgoo41F6fWYYfBXJYPM2RJ5ynYjdtL5zLGvLviwnOLulQq8IHNPVoT1HoHFaPcoGwnKhf4GOg+9Xx586X80vybV7wY3KMz2bJlw9HRURn9OiIjIwgLC+eiR+reZFGXyKUuIVKOBB/xl7x+9Yrp06bz8OEjBk/4Geeq1ZXKtxbP/U3dGbfZmiGbl1Ejhz5J4UeY2GQLFTfvpqHVQcY22UC5NYdpW8yAZJU/O3rX4tp3uxiVdwWDtxdn4fYBZPtNdokP2sXoJuswr5OFV351mL+2O/b/qf/++VLaiyePWTBtEnFRkfTs1YvsObIrla/j0aNH7NuzF5ejR5QR8W9J8BEi5UjwEX/LpYsXmTRhEjnz5WfQ2Ik4ZP26Zxv+WzwJ8cYYGvpxeHhrDuhPYPn8xiS4jWLAsqzM2jUMm9tT6T8ympEnZlPCJJn4wJ2Mbr6RMssPkPNoAzbGT2H19Nr/tSPw+5MD+WlTPmatKs729qsptXInTXJrAs6nn8/848O+uZioKDauWMKpw4cYMmwIHTp21F4C+9q+5OTmZFUw99wucT8yJw2alMRS+fY/N55WSfARIuWk8cOL+NKqVK3KiVMnKf1dMX5o05wd69eQmPBtOknGvd2Li2soevqO1GhVneT374hKiuehx1VsylTE6NVTYq0yYWlujqn2SlwUt7buIrHhGJqVNMbI2JDo4CCitROd43ju6UlAYhw+HjfJXb0ROa0rU6NSABeOPybm/VWuXNz1iefTPPbbc1f/m3dt1oC48BBOnnalU+fO3yT0fGl6+rY4hJ/g4PUYMvzm2//cuBBCfGlyiBF/m2YzuYGDB3HA5RAPblyh9/fNuH39qlL9emIf3eHorqWc9brACdcAKnZojL1BLP5+QYS/vMSjGAds83xP09LPOXnAlRMbF3HVbBiTxtTCUt+Y4i27k+XREiaOncOG1Vt5Y1EUW9Vdbt6yomTlXBhgQqnmDQnYM4E1J+Oxi7/3u+dz+MbTe96+fsWofj3ZsnIJi5csYt6C+dja2irV1CiOG1feUqpGKYyVkY8+Ny6EEF+WXOoS/5pmddHUKVMpUa4C/UeMIdNXemNOCA0mzsyEyNd+YJeLLNYf3yITIwKJ0LcjU8Zfc3wi4QGBYO2I5f9s+JscF0xgeAYc7DN+pi1FEpGhkZhZW5H0mef7FuLj49i+djWHdm6lb79+9OjVU9vWIiX8nUtdiWGPcDtznVDLLBi/DKNQl5YUyPBxZ+zzZ33w//CSCy7+dN21kGrmnxqfS57H+9mzN4hS7Rzxdomn/fh25FS9wdP1Cs9ePCNDpT58X1qF9949PNW3RV+VhY7tKhF4fS+H7xmQSS+JHLXaUC6b7n6uk0tdQqQcOeMj/rV6Depz6uxpsme1p0eLRhzatR2V6jcb53whRta2mBubkyVfgf8KIYYWDr8JPRqGWGb+fejR0DOxJfNnQ4+GAebq0KP5ap97vq/tyqULdG/eCL/njzly/Bg/9O2TYqHn74gPPM+CaS5krNqe6tG7mXvMDxMjiH19hGnjDmFetS3NcvoTmL0aJdWh59PjhtjZBHP1zj08T3gSEJZEUuR1Vo5cSlChJtTO+pDdB28T82gja71z0KqVM4R/IDnxIVvme1Pg+5aU0A8nwlwObUKIT5Ojg/gizMzMGDN2LDt27+Si6zH6d2jNo3s+SlX8Fe8D/Jk89CcWz/iZqVOnsGLVylTTqiFZ5cvuSSswazOQig7J+L16R67KVXHkMetGr8Km01AqOSTx5M4zClWrQsakT4+boyLgkgd+CTZU7DmHhQta4rd8AveK9qVy0kEWHDChU7eKGGZyVCfEzRx4YEuzdrXVRzIbMmf0ZufmRzg2b4ezhfKNCSHE/5DgI74oTUPJXXt206tHd8YN+IGF0yYTGR6uVMWnJCUmsmvjOnq3bkqxwgVwPXWK6jVSaruAfyb6znZcwuvRqqwpqri7HHONoGyVQkR7b+JIRG0aVzAjKdyNXUfNqVDVjsjPjOsTjsfFO2Su1pzKmfXUX8ubwyeSsTH05PT9bAxcvYyWBYwwztKGMYPN2TRyMS+MMqKnn4U2kwaTsH04mx4YYyZHNiHEZ8jhQXwVLVu34tSZM5gaQNdm9XE9fFCpiN+6e+O6dnL4He/L7Dt4gCFDh2KSIbV1IlcReOs2qtyFsTOI4ubOxZwMLkep3BG8fvCUWAcnMuu95+y6tdy1q0ZJk/e8/OR4MKER3njeLkDLDmW0k5yTVWGER1pTsn5H2reqgm3EW969vYTHPRX5Wk2ihfUlvB69xcP9PgbZWzOyqwVXLjwhhRbfCSFSAQk+4quxtLJk2ozprFu/DpcdWxjcvSMvnz5RqulbWMgHZo8fxbRRQxg6dDCbt24hV65cSjW10ccqV04+nJ7PhOlreaSyw9g0kldPY8hatCiGN9YwcuwGguxyYxTzDM+7kZ8ZDyf+thtPstehaq6PhyZ9k0o0qveOVUPGMnfhKlxfJGPw8Bir1+/lgpsrvraNcM71gMPL1nPI3Y3zTzJTq2Z+Un5vbSGErpJVXeKb0Ex23r5tG4sXLaZhi9Z06z/wm/f50gWal9uRPbvYsGwRLVu1ZPDQIWTMmFGp6qa/tqorkbDAMEwcbDFJCuN9sBEODpqfbxLhge/Rs86CuX4w/h/MyOpg+gfjnxLHB79QTDJnJqM60SSGhxNjlEBoYCI2Tpkx0wsnItKI+LBAkjM5YW+u+7FHVnUJkXLkjI/4JjSb7XXp2hXXU65EfXhP9+YNuHDmlFJNHx4/uMePHb/n/HEXtu/czrgJ43U+9Px1hlipQ08G9Z/0DKyU0KNhgKVDFiyM1eOGtr8JN58b/xQTbBw/hh4NQ3VgsDC1JXvOj2N6+pbqEGGKXfacqSL0CCFSlgQf8U3Z2tmxYNFC5i+Yz8alCxjTvzfv3vgq1bQpMiKCxTOmMKZfL7p26cTuvXsoULCgUhVCCPEtSfARKaKCszPHThynSsUK9Gvfis0rl5EQH69U047TR1zo1qw+RiRy6uwZvm/TJsU62wshhJDgI1KQkZERffv34/Cxo7x+fJ8eLRtxzfOyUk3dXj9/xpAendm/dQOrVq9ixsyZWFlZKVUhhBApRYKPSHGOjo6sWrOayZMmsXDKBKYMH0RQYIBSTV1iY2JYvXAuA7t1oEnD+hw67ELJUqWUqhBCiJQmwUfojBq1anLy9CkK5ctNz1ZN2LN5A0lJqWdHlkvnztCteQPCA99x4uRJuvXojoGBTLYVQghdIsFH6JQMGTIwbMQI9u3fx02PC/Rp05y7N68rVd3k//YNYwf0Yd3CX5g7dy6LlizG3sFeqQpVzBu8ju7igNtr2VhQCJHiJPgInZQ7Tx62bNvKTz/9yNThg/hl4ljCQkOUqm7QTMbeumYFfdu1pGK50hx3PUnFShWVqviVvqk9YR6r8Hhn9gfNYYUQ4tuQ4CN0WpOmTbWroeyszOnerAFH9+3WbgKY0q57edKrVROe+dzG5chh+g8YoJ2sLX5PFX+PK3ecqFjVVg44QogUJ8chofPMzc2ZOHmStq3DaZf9DOjclqcPHyjVb+vD+/dMGzmEeZPGMHbcGNauX0c2Jyelmp6pCLh7mDXzt3HOYx+LZi7nou/HC1uxz93wyViFsra+nN28kiM3wtT3/ij00VkO7t/OmhUuPIv62Jvr3rHlzFx2jsCwhxxcOoedHkH/uX+0rydHDmxn6dwt3A39dVQIIf46CT4i1ShcpAh79++jY/u2jOzTnaWzphEdFalUvy7NJOv92zbTo2Vj8ubMjuuZ09SpW1epCs2hxMriDaf2nuF1cjFKGx5j7vJLxJPESzdPTEo6cXffFQJfnmDHiafqURV+52cyaUsMlVp0oKGVC3PWPURP34IMgZe4GxiC99EH6MVeZf/JpySqn+HD9ZVMXPqS4o0aYfNkI653NKNCCPH3SPARqYpm87927dtrg4deQixdm9Tn7PGjSvXruH/nlnYej7fbGe2uyyNHj8LU9I9aLKRHKt57XUWvZg/aVS5EXidbYqOjSVL5c/HiOzIaGFL0+4aYhUdTpEwhDKI9WDrTh2p9G5HZQB99g0ReP3tBsipYfX9fLDNaUuL7RliEh1OgZCEMY66wdNIFyvVpTLjLdE4b9qa1s6Z/uxBC/D0SfESqlClTJmbNmc2KVSvZvWE1w3t3xfflC6X6ZYSHhjLv5wlMGvwj/fr+wPadO8ibL69SFf8tEq/L/lRqUhFTorh5y5di5UugF+yO55Oc1Glbj5x6N/D0yYezc0Yibp3kdqbqVMqmOQSFc+3KI7Llz0tSmDuX7uekfvvaOHGD81ccqVjZiogr+3FPdCLO+wivsg1g+bJO5JbcI4T4ByT4iFStVOlSHD56hPp1avNT53asW7yAuNhYpfrPaCZPHz+wT9tI1drMWDu5unmLFkpVfIoqxhvvp0UpX8qYWN8DHH3egK4tHAm97E5o5S40yKVP1D13nmWrSjGTOEhKJEOWbNgYQLz/UY7eq0Tndvn54OFGsHMn6uVU39/nDHdtKlPcPF4diMJIsilCww6daFolK2FvA2VpvBDiH5HgI1I9zSaBPXr15LjrCYL9XqsDS0M83c8r1b/n+eNHDOzanuP7drJh0yYmT5mChYWFUhWfE3HrAneTjXnveZi1m4PptHgkJc0j8XJ/RMk6lcmomfx86w5hyR948iqOjGVaUTn5CkfPHWfTpje0WDiDmg4xeLv5UKxmFczVscbv+m0iDGIICEjEvGJzyvqvZ8SYOSxZdYg3Kmtka0ghxD+hp/50m/Jrg4X4gi5fusSkCZPIkTcfA8dMJLOjo1L5vJioKDYsX6xtKjps+DDad+wgzUQV169dY/bMWew9sF8Z+V/xeM1pxd5sKxhb35pM9pafDCWJ4W/wj7PHyd5Eezs5KZLgYBWZHD59/+S4cCJVllgo06mS40LwDzXAIfOn75+a/DJ7DpaWlvT7sb8yIoT4VuSMj0hzKlepwolTJylTojh92jZn+7rVJCYkKNXfO+96nK7NGpAYFY7rmVN06NRRQs9fpiL8rTsuZ+NxcsyA+WdCj4ahpdN/Qo+GnoE5dp8JPRp6Jv8fejT0TDKRNQ2EHiFEypLgI9IkY2Njfho0kIOHXXh06xq9Wjfl1lVvpfrR21cvGdmnB9tXL2fpsiX8Mm8uNjY2SlX8NclgVJgf16+nTQE5nAghdJ8cqUSalj17dtZv3MCoUSOZPW4kM8YMx9/vLRuWLeLHTm2oXaMqR44dpUzZssojxN9jgKWDk/bf2cnJjgzKqBBC6CoJPiJdqFe/nnZ1Vs5sWWhbtzoBr55z9MRxev3wA4aGhsq9hBBCpHUSfES6odl0cPSYMdx/9JBlK5aTJUsWpSKEECK9kOAj0h0Tk/+fYCuEECJ9keXsQog/pFnOPmrESDZv3aqMiH9r/ry5FCxYSJazC5ECJPgIIf6Qz927dGzfAWtra2VE/FuhoaHay66dunRWRoQQ34oEHyGEEEKkGzLHRwghhBDphgQfIYQQQqQbEnyEEEIIkW5I8BFCCCFEuiHBRwghhBDphgQfIYQQQqQbEnyEEEIIkW5I8BFCCCFEuiHBRwghhBDphgQfIYQQQqQT8H8gHxIEotfX0gAAAABJRU5ErkJggg==;movable=0;resizable=0;rotatable=0;deletable=0;editable=0;locked=1;connectable=0;" vertex="1" parent="1">
          <mxGeometry x="140" y="740" width="926.2" height="760" as="geometry" />
        </mxCell>
        <mxCell id="A0HgNM1Q325AY8ZzX9nf-1" value=" Blu-ray discs" style="swimlane;whiteSpace=wrap;html=1;" vertex="1" parent="1">
          <mxGeometry x="40" y="100" width="200" height="200" as="geometry" />
        </mxCell>
        <mxCell id="A0HgNM1Q325AY8ZzX9nf-2" value="Downloadable video" style="swimlane;whiteSpace=wrap;html=1;startSize=15;" vertex="1" parent="1">
          <mxGeometry x="40" y="350" width="200" height="200" as="geometry" />
        </mxCell>
        <mxCell id="A0HgNM1Q325AY8ZzX9nf-3" value="&lt;u&gt;disc_id&lt;/u&gt;&lt;br&gt;price" style="text;html=1;align=center;verticalAlign=middle;resizable=0;points=[];autosize=1;strokeColor=none;fillColor=none;" vertex="1" parent="1">
          <mxGeometry x="107" y="180" width="70" height="50" as="geometry" />
        </mxCell>
        <mxCell id="A0HgNM1Q325AY8ZzX9nf-4" value=" disc&amp;amp;video" style="swimlane;whiteSpace=wrap;html=1;startSize=23;" vertex="1" parent="1">
          <mxGeometry x="540" y="230" width="200" height="200" as="geometry" />
        </mxCell>
        <mxCell id="A0HgNM1Q325AY8ZzX9nf-5" value="&lt;u&gt;veo_id&lt;/u&gt;&lt;div&gt;title&lt;/div&gt;&lt;div&gt;content&lt;/div&gt;" style="text;html=1;align=center;verticalAlign=middle;resizable=0;points=[];autosize=1;strokeColor=none;fillColor=none;" vertex="1" parent="1">
          <mxGeometry x="597" y="295" width="70" height="60" as="geometry" />
        </mxCell>
        <mxCell id="A0HgNM1Q325AY8ZzX9nf-6" value="&lt;u&gt;dlveo_id&lt;/u&gt;&lt;div&gt;price&lt;/div&gt;" style="text;html=1;align=center;verticalAlign=middle;resizable=0;points=[];autosize=1;strokeColor=none;fillColor=none;" vertex="1" parent="1">
          <mxGeometry x="102" y="440" width="80" height="50" as="geometry" />
        </mxCell>
        <mxCell id="A0HgNM1Q325AY8ZzX9nf-7" value="disc_form" style="rhombus;whiteSpace=wrap;html=1;" vertex="1" parent="1">
          <mxGeometry x="360" y="160" width="80" height="80" as="geometry" />
        </mxCell>
        <mxCell id="A0HgNM1Q325AY8ZzX9nf-8" value="dlveo_form" style="rhombus;whiteSpace=wrap;html=1;" vertex="1" parent="1">
          <mxGeometry x="360" y="410" width="80" height="80" as="geometry" />
        </mxCell>
        <mxCell id="A0HgNM1Q325AY8ZzX9nf-10" value="" style="shape=link;html=1;rounded=0;exitX=1;exitY=0.5;exitDx=0;exitDy=0;entryX=0;entryY=0.5;entryDx=0;entryDy=0;" edge="1" parent="1" source="A0HgNM1Q325AY8ZzX9nf-1" target="A0HgNM1Q325AY8ZzX9nf-7">
          <mxGeometry width="100" relative="1" as="geometry">
            <mxPoint x="360" y="340" as="sourcePoint" />
            <mxPoint x="460" y="340" as="targetPoint" />
          </mxGeometry>
        </mxCell>
        <mxCell id="A0HgNM1Q325AY8ZzX9nf-11" value="" style="shape=link;html=1;rounded=0;exitX=1;exitY=0.5;exitDx=0;exitDy=0;entryX=0;entryY=0.5;entryDx=0;entryDy=0;" edge="1" parent="1">
          <mxGeometry width="100" relative="1" as="geometry">
            <mxPoint x="240" y="449.5" as="sourcePoint" />
            <mxPoint x="360" y="449.5" as="targetPoint" />
          </mxGeometry>
        </mxCell>
        <mxCell id="A0HgNM1Q325AY8ZzX9nf-14" value="" style="endArrow=classic;html=1;rounded=0;entryX=0;entryY=0.5;entryDx=0;entryDy=0;exitX=1;exitY=0.5;exitDx=0;exitDy=0;" edge="1" parent="1" source="A0HgNM1Q325AY8ZzX9nf-7" target="A0HgNM1Q325AY8ZzX9nf-4">
          <mxGeometry width="50" height="50" relative="1" as="geometry">
            <mxPoint x="390" y="360" as="sourcePoint" />
            <mxPoint x="440" y="310" as="targetPoint" />
          </mxGeometry>
        </mxCell>
        <mxCell id="A0HgNM1Q325AY8ZzX9nf-15" value="" style="endArrow=classic;html=1;rounded=0;entryX=0;entryY=0.5;entryDx=0;entryDy=0;" edge="1" parent="1" source="A0HgNM1Q325AY8ZzX9nf-8" target="A0HgNM1Q325AY8ZzX9nf-4">
          <mxGeometry width="50" height="50" relative="1" as="geometry">
            <mxPoint x="400" y="370" as="sourcePoint" />
            <mxPoint x="440" y="310" as="targetPoint" />
          </mxGeometry>
        </mxCell>
        <mxCell id="A0HgNM1Q325AY8ZzX9nf-17" value=" Blu-ray discs" style="swimlane;whiteSpace=wrap;html=1;" vertex="1" parent="1">
          <mxGeometry x="-870" y="1040" width="200" height="200" as="geometry" />
        </mxCell>
        <mxCell id="A0HgNM1Q325AY8ZzX9nf-18" value="Downloadable video" style="swimlane;whiteSpace=wrap;html=1;startSize=15;" vertex="1" parent="1">
          <mxGeometry x="-870" y="1290" width="200" height="200" as="geometry" />
        </mxCell>
        <mxCell id="A0HgNM1Q325AY8ZzX9nf-19" value="&lt;u&gt;disc_id&lt;/u&gt;&lt;br&gt;price" style="text;html=1;align=center;verticalAlign=middle;resizable=0;points=[];autosize=1;strokeColor=none;fillColor=none;" vertex="1" parent="1">
          <mxGeometry x="-803" y="1120" width="70" height="50" as="geometry" />
        </mxCell>
        <mxCell id="A0HgNM1Q325AY8ZzX9nf-20" value=" disc&amp;amp;video" style="swimlane;whiteSpace=wrap;html=1;startSize=23;" vertex="1" parent="1">
          <mxGeometry x="-370" y="1170" width="200" height="200" as="geometry" />
        </mxCell>
        <mxCell id="A0HgNM1Q325AY8ZzX9nf-21" value="&lt;u&gt;veo_id&lt;/u&gt;&lt;div&gt;title&lt;/div&gt;&lt;div&gt;content&lt;/div&gt;" style="text;html=1;align=center;verticalAlign=middle;resizable=0;points=[];autosize=1;strokeColor=none;fillColor=none;" vertex="1" parent="1">
          <mxGeometry x="-313" y="1235" width="70" height="60" as="geometry" />
        </mxCell>
        <mxCell id="A0HgNM1Q325AY8ZzX9nf-22" value="&lt;u&gt;dlveo_id&lt;/u&gt;&lt;div&gt;price&lt;/div&gt;" style="text;html=1;align=center;verticalAlign=middle;resizable=0;points=[];autosize=1;strokeColor=none;fillColor=none;" vertex="1" parent="1">
          <mxGeometry x="-808" y="1380" width="80" height="50" as="geometry" />
        </mxCell>
        <mxCell id="A0HgNM1Q325AY8ZzX9nf-23" value="disc_form" style="rhombus;whiteSpace=wrap;html=1;" vertex="1" parent="1">
          <mxGeometry x="-550" y="1100" width="80" height="80" as="geometry" />
        </mxCell>
        <mxCell id="A0HgNM1Q325AY8ZzX9nf-24" value="dlveo_form" style="rhombus;whiteSpace=wrap;html=1;" vertex="1" parent="1">
          <mxGeometry x="-550" y="1350" width="80" height="80" as="geometry" />
        </mxCell>
        <mxCell id="A0HgNM1Q325AY8ZzX9nf-25" value="" style="shape=link;html=1;rounded=0;exitX=1;exitY=0.5;exitDx=0;exitDy=0;entryX=0;entryY=0.5;entryDx=0;entryDy=0;" edge="1" parent="1" source="A0HgNM1Q325AY8ZzX9nf-17" target="A0HgNM1Q325AY8ZzX9nf-23">
          <mxGeometry width="100" relative="1" as="geometry">
            <mxPoint x="-550" y="1280" as="sourcePoint" />
            <mxPoint x="-450" y="1280" as="targetPoint" />
          </mxGeometry>
        </mxCell>
        <mxCell id="A0HgNM1Q325AY8ZzX9nf-26" value="" style="shape=link;html=1;rounded=0;exitX=1;exitY=0.5;exitDx=0;exitDy=0;entryX=0;entryY=0.5;entryDx=0;entryDy=0;" edge="1" parent="1">
          <mxGeometry width="100" relative="1" as="geometry">
            <mxPoint x="-670" y="1389.5" as="sourcePoint" />
            <mxPoint x="-550" y="1389.5" as="targetPoint" />
          </mxGeometry>
        </mxCell>
        <mxCell id="A0HgNM1Q325AY8ZzX9nf-27" value="" style="endArrow=classic;html=1;rounded=0;entryX=0;entryY=0.5;entryDx=0;entryDy=0;exitX=1;exitY=0.5;exitDx=0;exitDy=0;" edge="1" parent="1" source="A0HgNM1Q325AY8ZzX9nf-23" target="A0HgNM1Q325AY8ZzX9nf-20">
          <mxGeometry width="50" height="50" relative="1" as="geometry">
            <mxPoint x="-520" y="1300" as="sourcePoint" />
            <mxPoint x="-470" y="1250" as="targetPoint" />
          </mxGeometry>
        </mxCell>
        <mxCell id="A0HgNM1Q325AY8ZzX9nf-28" value="" style="endArrow=classic;html=1;rounded=0;entryX=0;entryY=0.5;entryDx=0;entryDy=0;" edge="1" parent="1" source="A0HgNM1Q325AY8ZzX9nf-24" target="A0HgNM1Q325AY8ZzX9nf-20">
          <mxGeometry width="50" height="50" relative="1" as="geometry">
            <mxPoint x="-510" y="1310" as="sourcePoint" />
            <mxPoint x="-470" y="1250" as="targetPoint" />
          </mxGeometry>
        </mxCell>
        <mxCell id="A0HgNM1Q325AY8ZzX9nf-29" value="disc_shop" style="rhombus;whiteSpace=wrap;html=1;" vertex="1" parent="1">
          <mxGeometry x="-40" y="1000" width="80" height="80" as="geometry" />
        </mxCell>
        <mxCell id="A0HgNM1Q325AY8ZzX9nf-30" value="dlveo_shop" style="rhombus;whiteSpace=wrap;html=1;" vertex="1" parent="1">
          <mxGeometry x="-40" y="1450" width="80" height="80" as="geometry" />
        </mxCell>
        <mxCell id="A0HgNM1Q325AY8ZzX9nf-31" value="" style="endArrow=none;html=1;rounded=0;exitX=1;exitY=1;exitDx=0;exitDy=0;entryX=0;entryY=0.5;entryDx=0;entryDy=0;" edge="1" parent="1" source="A0HgNM1Q325AY8ZzX9nf-18" target="A0HgNM1Q325AY8ZzX9nf-30">
          <mxGeometry width="50" height="50" relative="1" as="geometry">
            <mxPoint x="-20" y="1700" as="sourcePoint" />
            <mxPoint x="30" y="1650" as="targetPoint" />
          </mxGeometry>
        </mxCell>
        <mxCell id="A0HgNM1Q325AY8ZzX9nf-32" value="" style="endArrow=none;html=1;rounded=0;exitX=1;exitY=0;exitDx=0;exitDy=0;entryX=0;entryY=0.5;entryDx=0;entryDy=0;" edge="1" parent="1" source="A0HgNM1Q325AY8ZzX9nf-17" target="A0HgNM1Q325AY8ZzX9nf-29">
          <mxGeometry width="50" height="50" relative="1" as="geometry">
            <mxPoint x="-20" y="1370" as="sourcePoint" />
            <mxPoint x="30" y="1320" as="targetPoint" />
          </mxGeometry>
        </mxCell>
        <mxCell id="A0HgNM1Q325AY8ZzX9nf-34" value="" style="endArrow=none;html=1;rounded=0;entryX=1;entryY=0.5;entryDx=0;entryDy=0;" edge="1" parent="1" target="A0HgNM1Q325AY8ZzX9nf-29">
          <mxGeometry width="50" height="50" relative="1" as="geometry">
            <mxPoint x="580" y="1200" as="sourcePoint" />
            <mxPoint x="30" y="1320" as="targetPoint" />
          </mxGeometry>
        </mxCell>
        <mxCell id="A0HgNM1Q325AY8ZzX9nf-35" value="" style="endArrow=none;html=1;rounded=0;exitX=1;exitY=0.5;exitDx=0;exitDy=0;" edge="1" parent="1" source="A0HgNM1Q325AY8ZzX9nf-30">
          <mxGeometry width="50" height="50" relative="1" as="geometry">
            <mxPoint x="-20" y="1360" as="sourcePoint" />
            <mxPoint x="600" y="1260" as="targetPoint" />
          </mxGeometry>
        </mxCell>
        <mxCell id="A0HgNM1Q325AY8ZzX9nf-36" value="disc_stock" style="rhombus;whiteSpace=wrap;html=1;" vertex="1" parent="1">
          <mxGeometry x="-40" y="1090" width="80" height="80" as="geometry" />
        </mxCell>
        <mxCell id="A0HgNM1Q325AY8ZzX9nf-37" value="" style="endArrow=none;html=1;rounded=0;exitX=1;exitY=0;exitDx=0;exitDy=0;entryX=0;entryY=0.5;entryDx=0;entryDy=0;" edge="1" parent="1" source="A0HgNM1Q325AY8ZzX9nf-17" target="A0HgNM1Q325AY8ZzX9nf-36">
          <mxGeometry width="50" height="50" relative="1" as="geometry">
            <mxPoint x="-170" y="1410" as="sourcePoint" />
            <mxPoint x="-120" y="1360" as="targetPoint" />
          </mxGeometry>
        </mxCell>
        <mxCell id="A0HgNM1Q325AY8ZzX9nf-38" value="" style="endArrow=none;html=1;rounded=0;entryX=1;entryY=0.5;entryDx=0;entryDy=0;" edge="1" parent="1" target="A0HgNM1Q325AY8ZzX9nf-36">
          <mxGeometry width="50" height="50" relative="1" as="geometry">
            <mxPoint x="560" y="1400" as="sourcePoint" />
            <mxPoint x="-120" y="1360" as="targetPoint" />
          </mxGeometry>
        </mxCell>
      </root>
    </mxGraphModel>
  </diagram>
</mxfile>
